<?xml version="1.0" encoding="UTF-8"?>
<svg version="1.1" xmlns="http://www.w3.org/2000/svg" width="512" height="512">
<path d="M0 0 C2.60591383 0.01617819 5.21029252 -0.0000238 7.81616211 -0.01904297 C22.19844933 -0.03782222 35.93595365 1.75913369 49.72045898 6.01611328 C50.54610352 6.26989746 51.37174805 6.52368164 52.22241211 6.78515625 C66.95084317 11.49301395 80.38591377 18.29271298 93.46264648 26.49316406 C94.24897461 26.9854248 95.03530273 27.47768555 95.84545898 27.98486328 C96.53510742 28.42507812 97.22475586 28.86529297 97.93530273 29.31884766 C99.98761288 30.4344103 101.58360349 31.12647797 103.90795898 31.39111328 C106.04929921 29.76925193 107.83109138 28.20726951 109.72045898 26.32861328 C110.52265869 25.57330322 110.52265869 25.57330322 111.34106445 24.80273438 C113.60650733 22.66784477 115.7956544 20.51400847 117.89624023 18.21533203 C119.53295898 16.51611328 119.53295898 16.51611328 122.90795898 14.39111328 C141.44145934 14.93621623 161.21454339 38.99187491 172.97485352 51.31445312 C181.0301036 59.96789556 189.34814235 69.920593 192.90795898 81.39111328 C191.99162998 86.05934058 188.7411622 89.0647131 185.53295898 92.39111328 C180.39787882 97.63079919 180.39787882 97.63079919 175.90795898 103.39111328 C176.32619428 106.57126423 177.65668043 108.87271215 179.34936523 111.55908203 C179.84678223 112.36095947 180.34419922 113.16283691 180.85668945 113.98901367 C181.3892334 114.84358154 181.92177734 115.69814941 182.47045898 116.57861328 C191.59023481 131.55220782 198.2898502 146.46730711 202.90795898 163.39111328 C203.22555176 164.48407715 203.22555176 164.48407715 203.54956055 165.59912109 C209.93842383 188.14745473 209.8365811 216.99911128 202.90795898 239.39111328 C202.66658203 240.18179199 202.42520508 240.9724707 202.17651367 241.78710938 C196.256399 260.54158585 185.06563053 285.92757104 166.77514648 295.50830078 C145.85643145 303.85987903 121.29539499 295.91369108 101.70483398 287.6328125 C93.27739093 283.89136912 85.07452294 279.66652884 76.90795898 275.39111328 C76.80612305 276.62216797 76.70428711 277.85322266 76.59936523 279.12158203 C71.9534692 320.51449571 47.50598308 366.66211996 15.22045898 393.26611328 C13.45613002 394.64944947 11.68549937 396.02479492 9.90795898 397.39111328 C9.04428711 398.08591797 8.18061523 398.78072266 7.29077148 399.49658203 C1.1750498 404.39111328 1.1750498 404.39111328 -1.09204102 404.39111328 C-1.06585693 405.49100586 -1.03967285 406.59089844 -1.01269531 407.72412109 C-0.92212224 411.80903746 -0.86476668 415.89386531 -0.81738281 419.97949219 C-0.79225461 421.74689667 -0.75814585 423.51419738 -0.71484375 425.28125 C-0.65411367 427.82333977 -0.62581586 430.36405493 -0.60375977 432.90673828 C-0.57795334 433.69542297 -0.55214691 434.48410767 -0.52555847 435.29669189 C-0.52356874 439.19794277 -0.6717377 440.95652377 -3.43359375 443.81225586 C-17.33345621 452.06741341 -31.6163206 456.84521251 -47.40454102 460.07861328 C-48.38720947 460.28115723 -49.36987793 460.48370117 -50.38232422 460.69238281 C-67.30676184 463.98366506 -83.94076808 464.73920139 -101.14794922 464.70678711 C-104.62507916 464.70363995 -108.10134432 464.7271334 -111.57836914 464.75244141 C-131.18342818 464.80868713 -150.89414409 463.53656454 -169.96704102 458.70361328 C-170.98531982 458.45160156 -172.00359863 458.19958984 -173.05273438 457.93994141 C-182.77460027 455.41537396 -192.19859078 452.08410872 -201.09204102 447.39111328 C-201.84533691 447.0867334 -202.59863281 446.78235352 -203.37475586 446.46875 C-206.13155452 445.03896098 -207.40645203 444.02848464 -209.09204102 441.39111328 C-210.09545361 435.07457435 -209.84432316 428.88742741 -209.59204102 422.51611328 C-209.5518868 420.76098561 -209.51538939 419.00577022 -209.48266602 417.25048828 C-209.39475988 412.96185796 -209.25687567 408.67744823 -209.09204102 404.39111328 C-209.85556885 404.10824463 -210.61909668 403.82537598 -211.40576172 403.53393555 C-214.88780227 402.05257302 -217.46662143 399.79700799 -220.27954102 397.32861328 C-220.85051514 396.83401611 -221.42148926 396.33941895 -222.00976562 395.82983398 C-223.16777051 394.82400645 -224.32316205 393.81516176 -225.47583008 392.80322266 C-226.88431206 391.57260939 -228.31091662 390.36279935 -229.74047852 389.15673828 C-241.58855022 378.95742736 -250.96164282 366.67228499 -259.09204102 353.39111328 C-259.70644043 352.3948291 -259.70644043 352.3948291 -260.33325195 351.37841797 C-272.942043 330.63936821 -280.59778798 307.9304532 -286.09204102 284.39111328 C-286.28411133 283.58206543 -286.47618164 282.77301758 -286.67407227 281.93945312 C-291.01774718 263.06021721 -291.38919331 243.9767149 -281.52954102 226.82861328 C-258.15988815 190.95186842 -213.83179588 174.89456933 -173.83129883 166.28759766 C-156.08910931 162.65057907 -138.24416787 160.26185161 -120.11938477 160.18798828 C-118.99802628 160.18228821 -117.87666779 160.17658813 -116.72132874 160.17071533 C-114.35394211 160.16132 -111.98654273 160.15475328 -109.61914062 160.15087891 C-106.09097731 160.14128042 -102.56342486 160.11024811 -99.03540039 160.07861328 C-83.99856717 160.01080581 -69.38351749 161.04417979 -54.48951721 163.11968994 C-51.83173796 163.46610894 -51.83173796 163.46610894 -48.09204102 163.39111328 C-48.69790039 162.62669922 -49.30375977 161.86228516 -49.92797852 161.07470703 C-74.88689528 129.29600155 -103.27546393 85.56537431 -99.09204102 43.39111328 C-97.51185065 33.64660602 -93.64354194 26.77621995 -86.09204102 20.39111328 C-82.91994469 18.19727294 -79.68018292 16.78926694 -76.09204102 15.39111328 C-75.43445801 15.12733887 -74.776875 14.86356445 -74.09936523 14.59179688 C-50.11235269 5.03001861 -25.8637922 -0.19015702 0 0 Z " fill="#BD3C36" transform="translate(297.092041015625,47.60888671875)"/>
<path d="M0 0 C1.02819855 0.00182281 2.05639709 0.00364563 3.11575317 0.00552368 C58.60806528 0.17066817 122.93784997 11.57620066 164.3828125 51.61328125 C170.73203091 58.00877676 175.44892047 64.57308324 179.5625 72.5625 C180.0889209 73.57316528 180.0889209 73.57316528 180.62597656 74.60424805 C182.60247071 78.63551828 183.70037287 81.73370963 183.0625 86.3125 C170.10826848 115.00634388 138.01362086 133.86599625 109.8515625 144.53515625 C108.25535735 145.12800555 106.65901459 145.72048453 105.0625 146.3125 C103.83273437 146.78558594 102.60296875 147.25867188 101.3359375 147.74609375 C89.58379211 152.00392521 77.32628904 154.07596105 65.0625 156.3125 C64.23766113 156.46992676 63.41282227 156.62735352 62.56298828 156.78955078 C28.14001917 163.33471125 -9.19088182 163.17861992 -43.9375 159.3125 C-45.0095166 159.19422852 -46.0815332 159.07595703 -47.18603516 158.95410156 C-91.66017909 153.78528933 -141.11208557 138.71895158 -170.14624023 102.24633789 C-172.14095568 99.64517464 -174.04115763 96.98637793 -175.9375 94.3125 C-176.51886719 93.5596875 -177.10023438 92.806875 -177.69921875 92.03125 C-180.07278937 88.75377166 -181.31340871 86.22073631 -181.1875 82.125 C-179.23536605 71.54333933 -171.92273407 62.16749084 -164.9375 54.3125 C-164.35742188 53.64992188 -163.77734375 52.98734375 -163.1796875 52.3046875 C-142.59599903 30.29528901 -111.25683646 17.92350648 -82.8125 10.3125 C-82.16364838 10.13885925 -81.51479675 9.96521851 -80.84628296 9.78631592 C-68.01350306 6.37930695 -55.11771445 3.93075083 -41.9375 2.3125 C-40.94914658 2.18489792 -40.94914658 2.18489792 -39.94082642 2.05471802 C-26.61267175 0.35699704 -13.42691624 -0.04957489 0 0 Z " fill="#FED141" transform="translate(190.9375,223.6875)"/>
<path d="M0 0 C2.34873673 3.04333265 4.42736852 6.2012089 6.5 9.4375 C21.74860214 32.26874036 42.29990998 46.59701499 67 58 C68.08410156 58.51046875 69.16820313 59.0209375 70.28515625 59.546875 C91.79145166 68.90400002 115.82457119 73.44314373 139 76 C140.55968506 76.17354004 140.55968506 76.17354004 142.15087891 76.35058594 C177.18330966 80.04744805 213.08386213 78.8650363 247.8125 73.1875 C248.55087097 73.06888611 249.28924194 72.95027222 250.04998779 72.82806396 C264.28718913 70.50584178 278.03545532 66.72323993 291.5625 61.6875 C292.34641113 61.39609131 293.13032227 61.10468262 293.93798828 60.80444336 C324.37996748 49.19886151 352.32882561 29.75982123 367 0 C367.33 0 367.66 0 368 0 C367.70996048 3.67128975 367.35965754 7.33491842 367 11 C366.86851562 12.56234375 366.86851562 12.56234375 366.734375 14.15625 C362.09341493 58.14448025 338.8416405 106.42221663 304.3125 134.875 C302.54817104 136.25833619 300.77754039 137.63368164 299 139 C298.13632812 139.69480469 297.27265625 140.38960937 296.3828125 141.10546875 C290.26709082 146 290.26709082 146 288 146 C288.02618408 147.09989258 288.05236816 148.19978516 288.0793457 149.33300781 C288.16991878 153.41792418 288.22727433 157.50275203 288.2746582 161.58837891 C288.29978641 163.35578338 288.33389516 165.1230841 288.37719727 166.89013672 C288.43792735 169.43222649 288.46622515 171.97294165 288.48828125 174.515625 C288.51408768 175.30430969 288.5398941 176.09299438 288.56648254 176.90557861 C288.56847227 180.80682948 288.42030332 182.56541049 285.65844727 185.42114258 C271.75858481 193.67630013 257.47572041 198.45409923 241.6875 201.6875 C240.21349731 201.99131592 240.21349731 201.99131592 238.7097168 202.30126953 C221.78527918 205.59255178 205.15127294 206.34808811 187.9440918 206.31567383 C184.46696185 206.31252667 180.9906967 206.33602012 177.51367188 206.36132812 C157.90861283 206.41757385 138.19789692 205.14545126 119.125 200.3125 C118.10672119 200.06048828 117.08844238 199.80847656 116.03930664 199.54882812 C106.31744074 197.02426068 96.89345024 193.69299544 88 189 C87.2467041 188.69562012 86.4934082 188.39124023 85.71728516 188.07763672 C82.9604865 186.6478477 81.68558898 185.63737136 80 183 C78.9965874 176.68346106 79.24771786 170.49631413 79.5 164.125 C79.54015421 162.36987233 79.57665162 160.61465694 79.609375 158.859375 C79.69728114 154.57074468 79.83516535 150.28633495 80 146 C79.23647217 145.71713135 78.47294434 145.4342627 77.6862793 145.14282227 C74.20423874 143.66145974 71.62541959 141.40589471 68.8125 138.9375 C68.24152588 138.44290283 67.67055176 137.94830566 67.08227539 137.4387207 C65.92427051 136.43289317 64.76887896 135.42404848 63.61621094 134.41210938 C62.20772895 133.18149611 60.78112439 131.97168607 59.3515625 130.765625 C47.50349079 120.56631408 38.1303982 108.28117171 30 95 C29.59040039 94.33581055 29.18080078 93.67162109 28.75878906 92.98730469 C12.94115936 66.97032905 -1.69375944 31.05225647 0 0 Z " fill="#808284" transform="translate(8,306)"/>
<path d="M0 0 C2.60591383 0.01617819 5.21029252 -0.0000238 7.81616211 -0.01904297 C22.19844933 -0.03782222 35.93595365 1.75913369 49.72045898 6.01611328 C50.54610352 6.26989746 51.37174805 6.52368164 52.22241211 6.78515625 C66.95084317 11.49301395 80.38591377 18.29271298 93.46264648 26.49316406 C94.24897461 26.9854248 95.03530273 27.47768555 95.84545898 27.98486328 C96.53510742 28.42507812 97.22475586 28.86529297 97.93530273 29.31884766 C99.98761288 30.4344103 101.58360349 31.12647797 103.90795898 31.39111328 C106.04929921 29.76925193 107.83109138 28.20726951 109.72045898 26.32861328 C110.25525879 25.82507324 110.79005859 25.3215332 111.34106445 24.80273438 C113.60650733 22.66784477 115.7956544 20.51400847 117.89624023 18.21533203 C119.53295898 16.51611328 119.53295898 16.51611328 122.90795898 14.39111328 C141.44145934 14.93621623 161.21454339 38.99187491 172.97485352 51.31445312 C181.0301036 59.96789556 189.34814235 69.920593 192.90795898 81.39111328 C191.99162998 86.05934058 188.7411622 89.0647131 185.53295898 92.39111328 C180.39787882 97.63079919 180.39787882 97.63079919 175.90795898 103.39111328 C176.32619428 106.57126423 177.65668043 108.87271215 179.34936523 111.55908203 C179.84678223 112.36095947 180.34419922 113.16283691 180.85668945 113.98901367 C181.3892334 114.84358154 181.92177734 115.69814941 182.47045898 116.57861328 C191.59023481 131.55220782 198.2898502 146.46730711 202.90795898 163.39111328 C203.22555176 164.48407715 203.22555176 164.48407715 203.54956055 165.59912109 C209.93842383 188.14745473 209.8365811 216.99911128 202.90795898 239.39111328 C202.66658203 240.18179199 202.42520508 240.9724707 202.17651367 241.78710938 C197.51797402 256.54501139 190.69516677 270.34531908 180.90795898 282.39111328 C179.90795898 280.39111328 179.90795898 280.39111328 180.45336914 278.56323242 C180.74002441 277.83740967 181.02667969 277.11158691 181.32202148 276.36376953 C183.05383547 271.42010213 183.37334232 267.03489869 183.28295898 261.82861328 C183.26555664 260.51836182 183.26555664 260.51836182 183.24780273 259.18164062 C182.11713264 213.59734576 150.37548478 170.28680214 121.93847656 136.78637695 C120.40486066 134.97727444 118.88333116 133.15791633 117.36767578 131.33374023 C109.98093637 122.50532445 102.0972772 114.2698788 93.93505859 106.1574707 C91.83706391 104.07026136 89.75006783 101.97247738 87.66381836 99.87353516 C80.38034691 92.58290754 73.01944934 85.75885666 64.90795898 79.39111328 C63.81737019 78.46863358 62.73278298 77.53894531 61.65795898 76.59814453 C23.40841416 43.29278803 -24.04036812 13.75022221 -76.09204102 16.39111328 C-55.37850941 2.58209221 -24.13157514 -0.17742133 0 0 Z " fill="#808184" transform="translate(297.092041015625,47.60888671875)"/>
<path d="M0 0 C0.92071289 0.53544434 1.84142578 1.07088867 2.79003906 1.62255859 C20.0469555 11.6075505 38.08005098 19.05793021 57.625 23.25 C58.32729736 23.40106201 59.02959473 23.55212402 59.75317383 23.70776367 C74.27770409 26.61726454 88.60530464 27.40652034 103.375 27.375 C104.29386993 27.37478851 105.21273987 27.37457703 106.15945435 27.37435913 C121.42795521 27.33941371 136.04942664 26.32803859 151 23 C152.32161133 22.71116943 152.32161133 22.71116943 153.66992188 22.41650391 C173.12857236 18.03501319 190.76800155 9.89939732 208 0 C208.12369707 5.19603804 208.21438309 10.39121744 208.2746582 15.58837891 C208.29978641 17.35578338 208.33389516 19.1230841 208.37719727 20.89013672 C208.43792735 23.43222649 208.46622515 25.97294165 208.48828125 28.515625 C208.51408768 29.30430969 208.5398941 30.09299438 208.56648254 30.90557861 C208.56847227 34.80682948 208.42030332 36.56541049 205.65844727 39.42114258 C191.75858481 47.67630013 177.47572041 52.45409923 161.6875 55.6875 C160.21349731 55.99131592 160.21349731 55.99131592 158.7097168 56.30126953 C141.78527918 59.59255178 125.15127294 60.34808811 107.9440918 60.31567383 C104.46696185 60.31252667 100.9906967 60.33602012 97.51367188 60.36132812 C77.90861283 60.41757385 58.19789692 59.14545126 39.125 54.3125 C38.10672119 54.06048828 37.08844238 53.80847656 36.03930664 53.54882812 C26.31744074 51.02426068 16.89345024 47.69299544 8 43 C7.2467041 42.69562012 6.4934082 42.39124023 5.71728516 42.07763672 C2.9604865 40.6478477 1.68558898 39.63737136 0 37 C-1.0034126 30.68346106 -0.75228214 24.49631413 -0.5 18.125 C-0.45984579 16.36987233 -0.42334838 14.61465694 -0.390625 12.859375 C-0.30271886 8.57074468 -0.16483465 4.28633495 0 0 Z " fill="#58595A" transform="translate(88,452)"/>
<path d="M0 0 C1.12135849 -0.00570007 2.24271698 -0.01140015 3.39805603 -0.01727295 C5.76544266 -0.02666828 8.13284204 -0.033235 10.50024414 -0.03710938 C14.02840746 -0.04670786 17.55595991 -0.07774017 21.08398438 -0.109375 C41.75018997 -0.20670194 62.21964684 1.3953765 82.40234375 6.015625 C83.56314453 6.27424316 84.72394531 6.53286133 85.91992188 6.79931641 C114.69086787 13.35658198 144.80795297 23.39391071 168.02734375 42.203125 C168.94515625 42.89792969 169.86296875 43.59273437 170.80859375 44.30859375 C184.06827275 54.59941605 196.50761785 70.08894713 199.02734375 87.203125 C199.31535039 90.89527572 199.52677687 94.52548112 199.02734375 98.203125 C198.36734375 98.863125 197.70734375 99.523125 197.02734375 100.203125 C196.81980469 99.54828125 196.61226563 98.8934375 196.3984375 98.21875 C188.58056733 75.05953628 171.75383242 60.12144953 151.02734375 48.203125 C149.38572266 47.23246094 149.38572266 47.23246094 147.7109375 46.2421875 C120.88475362 30.82734091 88.51414603 22.95971835 58.02734375 19.203125 C57.34307312 19.11805695 56.65880249 19.03298889 55.95379639 18.94534302 C42.25611498 17.28679604 28.69168903 16.84092209 14.90234375 16.890625 C13.87408478 16.89211548 12.84582581 16.89360596 11.78640747 16.8951416 C-4.0001692 16.93618826 -19.37539886 17.59023223 -34.97265625 20.203125 C-35.92769043 20.35297852 -36.88272461 20.50283203 -37.86669922 20.65722656 C-49.76640579 22.53518327 -61.35459611 25.09066488 -72.88623047 28.57519531 C-74.91169631 29.18477853 -76.94291629 29.76994869 -78.9765625 30.3515625 C-109.60759925 39.29620456 -142.43348438 55.34883621 -159.97265625 83.203125 C-162.17696862 87.46005512 -164.10371937 91.79120844 -165.97265625 96.203125 C-166.62695739 97.54256975 -167.28822205 98.87882441 -167.97265625 100.203125 C-170.94720894 94.25401963 -169.16379281 85.88947632 -167.47265625 79.765625 C-158.47050072 53.48058552 -134.21994522 36.43662241 -110.28515625 24.703125 C-76.36789789 8.60475675 -37.54753106 0.15301621 0 0 Z " fill="#EF4436" transform="translate(176.97265625,207.796875)"/>
<path d="M0 0 C26.33568166 10.3121645 51.59340223 38.55304592 64.30078125 63.25390625 C65.25 66.3125 65.25 66.3125 64.75 68.84375 C62.83143143 72.00139411 60.48868287 74.60395242 57.9375 77.25 C56.98170101 78.25781526 56.02726862 79.26692836 55.07421875 80.27734375 C54.6054834 80.77089355 54.13674805 81.26444336 53.65380859 81.77294922 C52.20441888 83.36248862 50.86291101 85.01181181 49.51953125 86.69140625 C48.77058594 87.55636719 48.02164063 88.42132813 47.25 89.3125 C46.59 89.3125 45.93 89.3125 45.25 89.3125 C43.83084349 87.5933104 42.49061434 85.8087319 41.1875 84 C40.36892002 82.88414364 39.5485672 81.76958592 38.7265625 80.65625 C38.10249512 79.80933594 38.10249512 79.80933594 37.46582031 78.9453125 C30.12468848 69.08637882 21.72835722 60.18501968 13.25 51.3125 C12.42113281 50.44109375 11.59226562 49.5696875 10.73828125 48.671875 C6.15166766 43.96174398 1.28722103 39.75609689 -3.84375 35.6484375 C-5.886104 34.00686802 -7.90430048 32.35320741 -9.90625 30.6640625 C-10.43307373 30.2198999 -10.95989746 29.7757373 -11.50268555 29.31811523 C-12.97806625 28.07135042 -14.45196903 26.82283729 -15.92578125 25.57421875 C-18.78147343 23.28729513 -21.67912179 21.29473601 -24.75 19.3125 C-22.73174818 14.24937115 -18.56482244 11.31355585 -14.5546875 7.80859375 C-11.82036958 5.45706798 -11.82036958 5.45706798 -9.8203125 3.22265625 C-6.5496856 -0.22793338 -4.72121667 -1.1858629 0 0 Z " fill="#58595B" transform="translate(424.75,62.6875)"/>
<path d="M0 0 C15.8198625 7.36441875 31.41558268 15.15328864 47 23 C47 26.74469501 46.01423767 27.64599253 43.74609375 30.5703125 C43.05580078 31.4675 42.36550781 32.3646875 41.65429688 33.2890625 C40.92275391 34.22492188 40.19121094 35.16078125 39.4375 36.125 C38.73302734 37.03765625 38.02855469 37.9503125 37.30273438 38.890625 C35.20925004 41.59961303 33.10591453 44.30066796 31 47 C29.6573468 48.72640287 28.3148829 50.45295298 26.97265625 52.1796875 C25.98183891 53.45317797 24.99098126 54.72663709 24 56 C8.1801375 48.63558125 -7.41558268 40.84671136 -23 33 C-23 29.25530499 -22.01423767 28.35400747 -19.74609375 25.4296875 C-19.05580078 24.5325 -18.36550781 23.6353125 -17.65429688 22.7109375 C-16.92275391 21.77507812 -16.19121094 20.83921875 -15.4375 19.875 C-14.73302734 18.96234375 -14.02855469 18.0496875 -13.30273438 17.109375 C-11.20925004 14.40038697 -9.10591453 11.69933204 -7 9 C-5.6573468 7.27359713 -4.3148829 5.54704702 -2.97265625 3.8203125 C-1.98183891 2.54682203 -0.99098126 1.27336291 0 0 Z " fill="#F1F1F0" transform="translate(104,312)"/>
<path d="M0 0 C0 10.56 0 21.12 0 32 C-8.33840295 34.08460074 -16.59109117 36.04399088 -25 37.75 C-26.65708984 38.09998047 -26.65708984 38.09998047 -28.34765625 38.45703125 C-29.40855469 38.67230469 -30.46945312 38.88757813 -31.5625 39.109375 C-32.51253906 39.30499023 -33.46257812 39.50060547 -34.44140625 39.70214844 C-37.11724879 40.01364919 -38.55302142 40.11694772 -41 39 C-42.83105469 36.86694336 -42.83105469 36.86694336 -44.671875 34.08984375 C-45.66767578 32.60581055 -45.66767578 32.60581055 -46.68359375 31.09179688 C-47.70646484 29.53041992 -47.70646484 29.53041992 -48.75 27.9375 C-49.44738281 26.89271484 -50.14476562 25.84792969 -50.86328125 24.77148438 C-52.58586473 22.18760915 -54.29748603 19.59712493 -56 17 C-55 15 -55 15 -52.86474609 14.24145508 C-51.92711426 14.00322021 -50.98948242 13.76498535 -50.0234375 13.51953125 C-48.44405396 13.10888428 -48.44405396 13.10888428 -46.83276367 12.68994141 C-45.69170166 12.40038574 -44.55063965 12.11083008 -43.375 11.8125 C-33.27064646 9.18036183 -23.26559838 6.33892575 -13.30029297 3.22192383 C-11.96635498 2.80656372 -11.96635498 2.80656372 -10.60546875 2.3828125 C-9.83356201 2.13934082 -9.06165527 1.89586914 -8.26635742 1.64501953 C-2.48637396 0 -2.48637396 0 0 0 Z " fill="#F1F1EF" transform="translate(288,328)"/>
<path d="M0 0 C13.06478842 4.83529905 26.03707171 9.89865835 39 15 C39 18 39 18 36.98046875 20.36010742 C36.05878906 21.26607666 35.13710937 22.1720459 34.1875 23.10546875 C33.69918701 23.5895369 33.21087402 24.07360504 32.70776367 24.57234192 C31.14540174 26.1179014 29.57293673 27.65271107 28 29.1875 C26.93942238 30.23303282 25.87951771 31.27924873 24.8203125 32.32617188 C22.22130566 34.89208902 19.6131361 37.44846467 17 40 C12.6865604 38.66017669 8.75658491 36.99589931 4.7265625 34.9609375 C3.57285156 34.38085938 2.41914063 33.80078125 1.23046875 33.203125 C0.02860117 32.59383809 -1.17322119 31.98446198 -2.375 31.375 C-3.60007332 30.75744122 -4.8253321 30.14025018 -6.05078125 29.5234375 C-9.03569632 28.01922833 -12.01867503 26.51130878 -15 25 C-15 21.31965916 -14.01641354 20.16994009 -11.97265625 17.1484375 C-11.34552734 16.21515625 -10.71839844 15.281875 -10.07226562 14.3203125 C-9.40904297 13.34835937 -8.74582031 12.37640625 -8.0625 11.375 C-7.40314453 10.3953125 -6.74378906 9.415625 -6.06445312 8.40625 C-1.19611207 1.19611207 -1.19611207 1.19611207 0 0 Z " fill="#F1F1EE" transform="translate(184,280)"/>
<path d="M0 0 C5.28 0 10.56 0 16 0 C16 5.28 16 10.56 16 16 C10.72 16 5.44 16 0 16 C0 10.72 0 5.44 0 0 Z " fill="#1EC951" transform="translate(208,360)"/>
<path d="M0 0 C5.28 0 10.56 0 16 0 C16 5.28 16 10.56 16 16 C10.72 16 5.44 16 0 16 C0 10.72 0 5.44 0 0 Z " fill="#1EC951" transform="translate(184,336)"/>
<path d="M0 0 C5.28 0 10.56 0 16 0 C16 5.28 16 10.56 16 16 C10.72 16 5.44 16 0 16 C0 10.72 0 5.44 0 0 Z " fill="#1EC951" transform="translate(320,328)"/>
<path d="M0 0 C5.28 0 10.56 0 16 0 C16 5.28 16 10.56 16 16 C10.72 16 5.44 16 0 16 C0 10.72 0 5.44 0 0 Z " fill="#1EC951" transform="translate(56,320)"/>
<path d="M0 0 C5.28 0 10.56 0 16 0 C16 5.28 16 10.56 16 16 C10.72 16 5.44 16 0 16 C0 10.72 0 5.44 0 0 Z " fill="#1EC951" transform="translate(264,296)"/>
<path d="M0 0 C5.28 0 10.56 0 16 0 C16 5.28 16 10.56 16 16 C10.72 16 5.44 16 0 16 C0 10.72 0 5.44 0 0 Z " fill="#1EC951" transform="translate(136,288)"/>
<path d="M0 0 C0.66 0.33 1.32 0.66 2 1 C-4.93 7.93 -11.86 14.86 -19 22 C-19 17.83256273 -16.7220201 16.1175327 -14 13.25 C-13.50395264 12.71793945 -13.00790527 12.18587891 -12.49682617 11.63769531 C-8.56892151 7.476431 -4.4406485 3.61359362 0 0 Z " fill="#F36636" transform="translate(39,249)"/>
</svg>
