<?xml version="1.0" encoding="UTF-8"?>
<svg version="1.1" xmlns="http://www.w3.org/2000/svg" width="512" height="512">
<path d="M0 0 C10.87488474 6.40690884 13.90129538 16.87328551 17.640625 28.125 C18.23737433 29.87970876 18.83581309 31.63384372 19.43579102 33.38745117 C20.74531224 37.22112661 22.04623762 41.05758063 23.34179688 44.89599609 C26.73080895 54.91873858 30.2079696 64.91122495 33.66976929 74.90899658 C34.90066031 78.46650394 36.12910503 82.02484647 37.35668945 85.58349609 C42.15136532 99.48262192 46.97340621 113.37174368 51.828125 127.25 C58.1599086 145.352488 64.40452177 163.48465209 70.63920593 181.6207428 C76.41666979 198.42628504 82.21117397 215.22543825 88.078125 232 C93.67674141 248.00843265 99.23207553 264.03145708 104.765625 280.0625 C105.16305908 281.21388458 105.56049316 282.36526917 105.9699707 283.55154419 C107.58076972 288.21827982 109.19154403 292.88502397 110.80221558 297.55180359 C115.21985582 310.34968817 119.64836348 323.14380688 124.078125 335.9375 C124.43790436 336.97663544 124.79768372 338.01577087 125.16836548 339.08639526 C125.87017941 341.11339725 126.57207753 343.14037008 127.27406311 345.16731262 C127.95461059 347.13324576 128.63458416 349.09937767 129.31394958 351.0657196 C131.18700227 356.48425276 133.07404152 361.89754575 134.97558594 367.30615234 C135.392789 368.49786545 135.80999207 369.68957855 136.23983765 370.91740417 C137.04923938 373.22887778 137.86226993 375.53908468 138.67935181 377.84785461 C139.04217255 378.8863707 139.40499329 379.92488678 139.77880859 380.99487305 C140.26442764 382.37427315 140.26442764 382.37427315 140.75985718 383.78153992 C141.453125 386.125 141.453125 386.125 141.453125 389.125 C140.78482666 389.4967334 140.11652832 389.8684668 139.42797852 390.25146484 C122.64623966 399.5908349 122.64623966 399.5908349 106.0390625 409.23510742 C99.72641023 412.97724409 93.37408734 416.64881678 87.015625 420.3125 C85.90840088 420.95050537 84.80117676 421.58851074 83.66040039 422.24584961 C81.38975432 423.55389477 79.11900142 424.86175448 76.84814453 426.16943359 C71.3814252 429.31832054 65.91737613 432.47183264 60.453125 435.625 C58.28647189 436.8750235 56.11980521 438.12502347 53.953125 439.375 C52.880625 439.99375 51.808125 440.6125 50.703125 441.25 C30.11979167 453.125 9.53645833 465 -11.046875 476.875 C-12.1203418 477.49431396 -13.19380859 478.11362793 -14.29980469 478.75170898 C-16.45668403 479.99604998 -18.61358492 481.24035364 -20.77050781 482.48461914 C-27.48491382 486.3580416 -34.19877972 490.23239602 -40.91113281 494.109375 C-43.13834832 495.39418348 -45.36683089 496.67679844 -47.59667969 497.95703125 C-52.11830883 500.55435536 -56.63065053 503.15614937 -61.078125 505.87890625 C-61.72297852 506.26763916 -62.36783203 506.65637207 -63.03222656 507.05688477 C-64.63303391 508.02582944 -66.22340608 509.01196233 -67.8125 510 C-71.26852678 511.42190816 -72.93624883 510.98139505 -76.546875 510.125 C-79.20898437 508.85327148 -79.20898437 508.85327148 -81.890625 507.24609375 C-82.8909375 506.65376953 -83.89125 506.06144531 -84.921875 505.45117188 C-85.953125 504.82791016 -86.984375 504.20464844 -88.046875 503.5625 C-90.07768533 502.35212658 -92.10893989 501.14249822 -94.140625 499.93359375 C-95.1721167 499.29848877 -96.2036084 498.66338379 -97.26635742 498.0090332 C-100.54500315 496.0470808 -100.54500315 496.0470808 -104.1965332 494.52807617 C-110.675256 491.63097713 -114.82795856 488.86363325 -117.67726135 482.18267822 C-119.20609206 478.02540908 -120.47722161 473.8082324 -121.734375 469.5625 C-122.34038582 467.66219859 -122.95212493 465.763716 -123.5690918 463.86694336 C-124.89343438 459.78185537 -126.1934418 455.69006858 -127.47949219 451.59277344 C-130.66113853 441.54115178 -134.17742629 431.60370472 -137.65255737 421.65072632 C-139.68706555 415.81226149 -141.69982877 409.96630835 -143.71484375 404.12109375 C-150.93276007 383.20551919 -158.17278369 362.29759176 -165.41558838 341.390625 C-166.57843697 338.03389175 -167.7411209 334.67710149 -168.90380859 331.3203125 C-170.85053885 325.70031859 -172.79810853 320.08061616 -174.74627686 314.46112061 C-175.47618648 312.35544119 -176.20588938 310.2496901 -176.93536377 308.14385986 C-180.75478159 297.11894582 -184.59045858 286.10162167 -188.546875 275.125 C-192.09121927 276.46955698 -195.35486693 278.03728344 -198.66015625 279.890625 C-200.14213501 280.72001587 -200.14213501 280.72001587 -201.65405273 281.56616211 C-202.71180908 282.16307861 -203.76956543 282.75999512 -204.859375 283.375 C-206.52238647 284.31001343 -206.52238647 284.31001343 -208.21899414 285.26391602 C-217.68628377 290.60373305 -227.07987465 296.06623025 -236.45703125 301.5625 C-242.76257919 305.2571331 -249.08981936 308.91352681 -255.421875 312.5625 C-256.50202881 313.18503662 -257.58218262 313.80757324 -258.69506836 314.44897461 C-260.88483834 315.71076826 -263.07469855 316.97240534 -265.26464844 318.23388672 C-269.612026 320.73870572 -273.95793889 323.2460589 -278.30371094 325.75366211 C-280.46050379 326.99815302 -282.61740431 328.24245734 -284.77441406 329.48657227 C-291.4549195 333.33981759 -298.13372104 337.19597383 -304.80810547 341.05981445 C-307.02472003 342.33833353 -309.24502872 343.61047238 -311.46923828 344.87573242 C-316.17545588 347.55691369 -320.81703198 350.25362934 -325.3125 353.27734375 C-334.60364288 359.40684283 -334.60364288 359.40684283 -339.6171875 358.6796875 C-342.91665277 357.13993704 -345.60525196 355.27325427 -348.546875 353.125 C-350.70927967 351.76047978 -352.89320032 350.43478561 -355.078125 349.10668945 C-358.26421053 347.15850754 -361.40451655 345.14280885 -364.546875 343.125 C-362.89275099 338.59375604 -360.64985774 334.50635943 -358.296875 330.3125 C-357.86141357 329.53261719 -357.42595215 328.75273437 -356.97729492 327.94921875 C-352.17442085 319.39146158 -347.20893512 310.92882282 -342.25 302.4609375 C-338.51052911 296.07218008 -334.80562466 289.66383924 -331.109375 283.25 C-330.48716064 282.17041016 -329.86494629 281.09082031 -329.22387695 279.97851562 C-327.96175983 277.7881748 -326.69979715 275.59774498 -325.43798828 273.40722656 C-322.31007352 267.97840058 -319.17829052 262.55180719 -316.046875 257.125 C-314.79685621 254.95834417 -313.54685622 252.7916775 -312.296875 250.625 C-299.796875 228.95833333 -287.296875 207.29166667 -274.796875 185.625 C-274.17748047 184.5512915 -273.55808594 183.47758301 -272.91992188 182.37133789 C-271.676752 180.21669376 -270.43326525 178.06223243 -269.18945312 175.90795898 C-266.29704353 170.89745879 -263.40752273 165.88537365 -260.52990723 160.86636353 C-259.52139186 159.10771251 -258.5118273 157.34966791 -257.50195312 155.59179688 C-256.24336982 153.40027769 -254.98670513 151.20765496 -253.73242188 149.01367188 C-252.02270561 146.03933866 -250.28886861 143.08052283 -248.546875 140.125 C-247.98226562 139.13999512 -247.41765625 138.15499023 -246.8359375 137.14013672 C-241.37800861 127.99162299 -234.76454158 123.54073486 -225.546875 118.625 C-218.30760905 114.6819137 -211.15830916 110.60665234 -204.046875 106.4375 C-195.60436217 101.49302369 -187.14883743 96.57271279 -178.671875 91.6875 C-177.59228516 91.06528564 -176.51269531 90.44307129 -175.40039062 89.80200195 C-173.2100498 88.53988483 -171.01961998 87.27792215 -168.82910156 86.01611328 C-163.40027558 82.88819852 -157.97368219 79.75641552 -152.546875 76.625 C-150.38021917 75.37498121 -148.2135525 74.12498122 -146.046875 72.875 C-144.974375 72.25625 -143.901875 71.6375 -142.796875 71 C-81.046875 35.375 -81.046875 35.375 -77.79370117 33.49829102 C-75.63747287 32.25423208 -73.48138451 31.00993058 -71.32543945 29.76538086 C-66.33237646 26.88344578 -61.33809984 24.00370692 -56.33854675 21.13304138 C-40.50372607 12.0846944 -40.50372607 12.0846944 -24.96484375 2.54296875 C-17.60873729 -1.77087074 -8.16388957 -2.80477188 0 0 Z " fill="#44396B" transform="translate(367.546875,0.875)"/>
<path d="M0 0 C10.87488474 6.40690884 13.90129538 16.87328551 17.640625 28.125 C18.23737433 29.87970876 18.83581309 31.63384372 19.43579102 33.38745117 C20.74531224 37.22112661 22.04623762 41.05758063 23.34179688 44.89599609 C26.73080895 54.91873858 30.2079696 64.91122495 33.66976929 74.90899658 C34.90066031 78.46650394 36.12910503 82.02484647 37.35668945 85.58349609 C42.15136532 99.48262192 46.97340621 113.37174368 51.828125 127.25 C58.1599086 145.352488 64.40452177 163.48465209 70.63920593 181.6207428 C76.41666979 198.42628504 82.21117397 215.22543825 88.078125 232 C93.67674141 248.00843265 99.23207553 264.03145708 104.765625 280.0625 C105.16305908 281.21388458 105.56049316 282.36526917 105.9699707 283.55154419 C107.58076972 288.21827982 109.19154403 292.88502397 110.80221558 297.55180359 C115.21985582 310.34968817 119.64836348 323.14380688 124.078125 335.9375 C124.43790436 336.97663544 124.79768372 338.01577087 125.16836548 339.08639526 C125.87017941 341.11339725 126.57207753 343.14037008 127.27406311 345.16731262 C127.95461059 347.13324576 128.63458416 349.09937767 129.31394958 351.0657196 C131.18700227 356.48425276 133.07404152 361.89754575 134.97558594 367.30615234 C135.392789 368.49786545 135.80999207 369.68957855 136.23983765 370.91740417 C137.04923938 373.22887778 137.86226993 375.53908468 138.67935181 377.84785461 C139.04217255 378.8863707 139.40499329 379.92488678 139.77880859 380.99487305 C140.26442764 382.37427315 140.26442764 382.37427315 140.75985718 383.78153992 C141.453125 386.125 141.453125 386.125 141.453125 389.125 C140.78482666 389.4967334 140.11652832 389.8684668 139.42797852 390.25146484 C122.64623966 399.5908349 122.64623966 399.5908349 106.0390625 409.23510742 C99.72641023 412.97724409 93.37408734 416.64881678 87.015625 420.3125 C85.90840088 420.95050537 84.80117676 421.58851074 83.66040039 422.24584961 C81.38975432 423.55389477 79.11900142 424.86175448 76.84814453 426.16943359 C71.3814252 429.31832054 65.91737613 432.47183264 60.453125 435.625 C58.28647189 436.8750235 56.11980521 438.12502347 53.953125 439.375 C52.880625 439.99375 51.808125 440.6125 50.703125 441.25 C30.11979167 453.125 9.53645833 465 -11.046875 476.875 C-12.1203418 477.49431396 -13.19380859 478.11362793 -14.29980469 478.75170898 C-16.45668403 479.99604998 -18.61358492 481.24035364 -20.77050781 482.48461914 C-27.48491382 486.3580416 -34.19877972 490.23239602 -40.91113281 494.109375 C-43.13834832 495.39418348 -45.36683089 496.67679844 -47.59667969 497.95703125 C-52.11830883 500.55435536 -56.63065053 503.15614937 -61.078125 505.87890625 C-61.72297852 506.26763916 -62.36783203 506.65637207 -63.03222656 507.05688477 C-64.63303391 508.02582944 -66.22340608 509.01196233 -67.8125 510 C-71.26852678 511.42190816 -72.93624883 510.98139505 -76.546875 510.125 C-79.20898437 508.85327148 -79.20898437 508.85327148 -81.890625 507.24609375 C-82.8909375 506.65376953 -83.89125 506.06144531 -84.921875 505.45117188 C-85.953125 504.82791016 -86.984375 504.20464844 -88.046875 503.5625 C-90.07768533 502.35212658 -92.10893989 501.14249822 -94.140625 499.93359375 C-95.1721167 499.29848877 -96.2036084 498.66338379 -97.26635742 498.0090332 C-100.54500315 496.0470808 -100.54500315 496.0470808 -104.1965332 494.52807617 C-110.675256 491.63097713 -114.82795856 488.86363325 -117.67726135 482.18267822 C-119.20609206 478.02540908 -120.47722161 473.8082324 -121.734375 469.5625 C-122.34038582 467.66219859 -122.95212493 465.763716 -123.5690918 463.86694336 C-124.89343438 459.78185537 -126.1934418 455.69006858 -127.47949219 451.59277344 C-130.66113853 441.54115178 -134.17742629 431.60370472 -137.65255737 421.65072632 C-139.68706555 415.81226149 -141.69982877 409.96630835 -143.71484375 404.12109375 C-150.93276007 383.20551919 -158.17278369 362.29759176 -165.41558838 341.390625 C-166.57843697 338.03389175 -167.7411209 334.67710149 -168.90380859 331.3203125 C-170.85053885 325.70031859 -172.79810853 320.08061616 -174.74627686 314.46112061 C-175.47618648 312.35544119 -176.20588938 310.2496901 -176.93536377 308.14385986 C-180.75478159 297.11894582 -184.59045858 286.10162167 -188.546875 275.125 C-192.09121927 276.46955698 -195.35486693 278.03728344 -198.66015625 279.890625 C-200.14213501 280.72001587 -200.14213501 280.72001587 -201.65405273 281.56616211 C-202.71180908 282.16307861 -203.76956543 282.75999512 -204.859375 283.375 C-206.52238647 284.31001343 -206.52238647 284.31001343 -208.21899414 285.26391602 C-217.68628377 290.60373305 -227.07987465 296.06623025 -236.45703125 301.5625 C-242.76257919 305.2571331 -249.08981936 308.91352681 -255.421875 312.5625 C-256.50202881 313.18503662 -257.58218262 313.80757324 -258.69506836 314.44897461 C-260.88483834 315.71076826 -263.07469855 316.97240534 -265.26464844 318.23388672 C-269.612026 320.73870572 -273.95793889 323.2460589 -278.30371094 325.75366211 C-280.46050379 326.99815302 -282.61740431 328.24245734 -284.77441406 329.48657227 C-291.4549195 333.33981759 -298.13372104 337.19597383 -304.80810547 341.05981445 C-307.02472003 342.33833353 -309.24502872 343.61047238 -311.46923828 344.87573242 C-316.17545588 347.55691369 -320.81703198 350.25362934 -325.3125 353.27734375 C-334.60364288 359.40684283 -334.60364288 359.40684283 -339.6171875 358.6796875 C-342.91665277 357.13993704 -345.60525196 355.27325427 -348.546875 353.125 C-350.70927967 351.76047978 -352.89320032 350.43478561 -355.078125 349.10668945 C-358.26421053 347.15850754 -361.40451655 345.14280885 -364.546875 343.125 C-362.89275099 338.59375604 -360.64985774 334.50635943 -358.296875 330.3125 C-357.86141357 329.53261719 -357.42595215 328.75273437 -356.97729492 327.94921875 C-352.17442085 319.39146158 -347.20893512 310.92882282 -342.25 302.4609375 C-338.51052911 296.07218008 -334.80562466 289.66383924 -331.109375 283.25 C-330.48716064 282.17041016 -329.86494629 281.09082031 -329.22387695 279.97851562 C-327.96175983 277.7881748 -326.69979715 275.59774498 -325.43798828 273.40722656 C-322.31007352 267.97840058 -319.17829052 262.55180719 -316.046875 257.125 C-314.79685621 254.95834417 -313.54685622 252.7916775 -312.296875 250.625 C-299.796875 228.95833333 -287.296875 207.29166667 -274.796875 185.625 C-274.17748047 184.5512915 -273.55808594 183.47758301 -272.91992188 182.37133789 C-271.676752 180.21669376 -270.43326525 178.06223243 -269.18945312 175.90795898 C-266.29704353 170.89745879 -263.40752273 165.88537365 -260.52990723 160.86636353 C-259.52139186 159.10771251 -258.5118273 157.34966791 -257.50195312 155.59179688 C-256.24336982 153.40027769 -254.98670513 151.20765496 -253.73242188 149.01367188 C-252.02270561 146.03933866 -250.28886861 143.08052283 -248.546875 140.125 C-247.98226562 139.13999512 -247.41765625 138.15499023 -246.8359375 137.14013672 C-241.37800861 127.99162299 -234.76454158 123.54073486 -225.546875 118.625 C-218.30760905 114.6819137 -211.15830916 110.60665234 -204.046875 106.4375 C-195.60436217 101.49302369 -187.14883743 96.57271279 -178.671875 91.6875 C-177.59228516 91.06528564 -176.51269531 90.44307129 -175.40039062 89.80200195 C-173.2100498 88.53988483 -171.01961998 87.27792215 -168.82910156 86.01611328 C-163.40027558 82.88819852 -157.97368219 79.75641552 -152.546875 76.625 C-150.38021917 75.37498121 -148.2135525 74.12498122 -146.046875 72.875 C-144.974375 72.25625 -143.901875 71.6375 -142.796875 71 C-81.046875 35.375 -81.046875 35.375 -77.79370117 33.49829102 C-75.63747287 32.25423208 -73.48138451 31.00993058 -71.32543945 29.76538086 C-66.33237646 26.88344578 -61.33809984 24.00370692 -56.33854675 21.13304138 C-40.50372607 12.0846944 -40.50372607 12.0846944 -24.96484375 2.54296875 C-17.60873729 -1.77087074 -8.16388957 -2.80477188 0 0 Z M-10.0234375 37.1328125 C-11.72330811 38.1074646 -11.72330811 38.1074646 -13.45751953 39.10180664 C-14.69571711 39.81773433 -15.93383353 40.53380239 -17.171875 41.25 C-18.44758452 41.98393707 -19.7234654 42.71757638 -20.99951172 43.45092773 C-29.89004255 48.56626619 -38.75452849 53.7265312 -47.60839844 58.9050293 C-58.13374963 65.06105495 -68.69884163 71.14764309 -79.26464844 77.23388672 C-84.69347442 80.36180148 -90.12006781 83.49358448 -95.546875 86.625 C-97.71353083 87.87501879 -99.8801975 89.12501878 -102.046875 90.375 C-103.119375 90.99375 -104.191875 91.6125 -105.296875 92.25 C-115.046875 97.875 -115.046875 97.875 -118.29907227 99.7512207 C-120.45846895 100.9970577 -122.61781169 102.24298818 -124.77709961 103.48901367 C-130.30455097 106.67848953 -135.83302621 109.86616885 -141.36328125 113.05078125 C-153.45873546 120.01822882 -165.53473031 127.01474723 -177.546875 134.125 C-176.94855697 141.20918882 -174.49534088 147.61886026 -172.1640625 154.296875 C-171.71300155 155.60323437 -171.26248801 156.90978287 -170.81248474 158.21650696 C-169.6066559 161.71283258 -168.39303244 165.20640517 -167.17782974 168.69948196 C-165.90726708 172.35596011 -164.64393051 176.01493398 -163.37963867 179.67358398 C-160.44500655 188.16073914 -157.49786361 196.64352025 -154.546875 205.125 C-154.16585632 206.220401 -153.78483765 207.315802 -153.39227295 208.44439697 C-150.63258018 216.37632593 -147.86759905 224.30639652 -145.09448242 232.23364258 C-140.10544304 246.49764133 -135.16488139 260.77817239 -130.234375 275.0625 C-129.83385925 276.22279724 -129.43334351 277.38309448 -129.02069092 278.57855225 C-127.39940648 283.27554339 -125.77815168 287.97254475 -124.15701294 292.66958618 C-119.93997256 304.8863741 -115.71306032 317.09973879 -111.484375 329.3125 C-111.11550171 330.37786987 -110.74662842 331.44323975 -110.36657715 332.54089355 C-108.87799999 336.84012553 -107.38939415 341.13934758 -105.9006958 345.4385376 C-102.89266993 354.12555569 -99.8861391 362.81309066 -96.87995911 371.50074768 C-93.89348456 380.13114784 -90.90533817 388.76096839 -87.91667175 397.39060974 C-85.61626417 404.03380636 -83.31862303 410.67795334 -81.02272034 417.32270813 C-79.4835219 421.77624806 -77.94262566 426.22919942 -76.40139771 430.68203735 C-75.67822782 432.77258237 -74.95576789 434.86337315 -74.23410034 436.95443726 C-70.16565534 448.74174258 -66.00376839 460.47848891 -61.546875 472.125 C-58.15684779 470.83391809 -55.02526669 469.36718459 -51.87109375 467.578125 C-50.97350342 467.07039551 -50.07591309 466.56266602 -49.15112305 466.03955078 C-47.70733276 465.21559814 -47.70733276 465.21559814 -46.234375 464.375 C-45.21964111 463.79862793 -44.20490723 463.22225586 -43.15942383 462.62841797 C-33.97130859 457.39603185 -24.8399187 452.06785446 -15.71484375 446.7265625 C-9.34122456 442.99869259 -2.94563226 439.30950788 3.453125 435.625 C11.76133212 430.84040411 20.05311185 426.02926301 28.328125 421.1875 C37.00570004 416.11215438 45.71942085 411.10283845 54.453125 406.125 C66.21422926 399.4196442 77.93840274 392.6547638 89.60595703 385.78759766 C92.51085104 384.091291 95.43148685 382.42486995 98.35546875 380.76171875 C100.20075126 379.69571128 102.04581368 378.62932271 103.890625 377.5625 C104.74398438 377.08586914 105.59734375 376.60923828 106.4765625 376.11816406 C107.25128906 375.66538086 108.02601563 375.21259766 108.82421875 374.74609375 C109.50411865 374.3586499 110.18401855 373.97120605 110.88452148 373.57202148 C113.07759468 371.54893279 113.1287919 370.06676499 113.453125 367.125 C112.91716842 364.42764057 112.91716842 364.42764057 111.87695312 361.64013672 C111.50425293 360.55630707 111.13155273 359.47247742 110.74755859 358.35580444 C110.33070801 357.18393585 109.91385742 356.01206726 109.484375 354.8046875 C109.05785645 353.57537506 108.63133789 352.34606262 108.19189453 351.07949829 C107.03391671 347.74260357 105.86112366 344.41109187 104.68557739 341.08035278 C103.45527576 337.58598038 102.23907355 334.08670827 101.02148438 330.58789062 C98.83699184 324.31670792 96.64153416 318.04944007 94.44023895 311.78413773 C92.43642747 306.08026281 90.44249855 300.37298637 88.453125 294.6640625 C87.8607008 292.9643472 87.26825337 291.26464 86.67578125 289.56494141 C86.24869873 288.33967743 86.24869873 288.33967743 85.81298828 287.08966064 C84.94309225 284.59624272 84.07138141 282.10346576 83.19921875 279.61083984 C77.72854981 263.9679364 72.34041885 248.29675226 66.953125 232.625 C60.94723267 215.15412025 54.92732017 197.6885853 48.828125 180.25 C43.63790364 165.40931382 38.4824201 150.55697187 33.35174561 135.69558716 C32.14713465 132.20635561 30.94201928 128.71729861 29.73681641 125.22827148 C26.06008184 114.58243843 22.38677613 103.93544886 18.72346497 93.2849884 C17.10562789 88.58324996 15.48500484 83.88247449 13.86392212 79.18185425 C13.10364208 76.97504935 12.34462205 74.76780987 11.58700562 72.56008911 C7.15018734 59.63224134 2.52725522 46.81731197 -2.546875 34.125 C-5.56237498 34.125 -7.42095802 35.63494375 -10.0234375 37.1328125 Z " fill="#D08B49" transform="translate(367.546875,0.875)"/>
<path d="M0 0 C6.50141341 6.37311023 8.96994804 15.12788699 11.875 23.5 C12.39809093 24.97439403 12.92219012 26.44843071 13.44726562 27.92211914 C16.90001313 37.65671563 20.2345832 47.43420189 23.41357422 57.26171875 C25.10906058 62.48270995 27.00274325 67.56257812 29.07617188 72.64477539 C30.65251722 76.66353953 31.84699897 80.78429996 33.06640625 84.921875 C34.15337997 88.52112573 35.37633766 92.0015574 36.8046875 95.48046875 C39.7223579 102.64636551 42.13925511 109.98892669 44.625 117.3125 C45.42566824 119.66214016 46.22721893 122.01147817 47.02879333 124.36080933 C47.56976293 125.94658007 48.11042223 127.5324567 48.65077209 129.11843872 C51.13945759 136.42049609 53.66252535 143.71041219 56.1875 151 C59.86896714 161.63616827 63.45891777 172.3003354 66.95776367 182.99804688 C68.82255746 188.65624582 70.84318811 194.19264865 73.09814453 199.70629883 C74.42577077 203.08286854 75.47159037 206.522996 76.5 210 C77.83964225 214.41342262 79.21593714 218.74126931 81 223 C83.04324839 227.87743164 84.57580173 232.87532967 86.07421875 237.94140625 C87.15593102 241.53501414 88.37900699 245.00805887 89.8046875 248.48046875 C92.7223579 255.64636551 95.13925511 262.98892669 97.625 270.3125 C98.42566824 272.66214016 99.22721893 275.01147817 100.02879333 277.36080933 C100.56976293 278.94658007 101.11042223 280.5324567 101.65077209 282.11843872 C104.13945759 289.42049609 106.66252535 296.71041219 109.1875 304 C112.86896714 314.63616827 116.45891777 325.3003354 119.95776367 335.99804688 C121.50340791 340.68787514 123.08986371 345.32379185 124.9609375 349.89453125 C127.52282707 356.16091062 129.62247707 362.57585097 131.75 369 C132.16121094 370.22589844 132.57242187 371.45179688 132.99609375 372.71484375 C133.38410156 373.88144531 133.77210938 375.04804688 134.171875 376.25 C134.5234668 377.30703125 134.87505859 378.3640625 135.23730469 379.453125 C136 382 136 382 136 384 C132.29653805 382.60432835 128.91285669 380.92795392 125.46484375 378.98828125 C124.40716797 378.39466797 123.34949219 377.80105469 122.25976562 377.18945312 C121.16341797 376.57005859 120.06707031 375.95066406 118.9375 375.3125 C117.86822266 374.71244141 116.79894531 374.11238281 115.69726562 373.49414062 C113.53035624 372.27517226 111.37318464 371.03874011 109.22583008 369.78564453 C106.05379942 367.95571693 106.05379942 367.95571693 102.7644043 366.63232422 C96.78532766 363.89612871 93.56828684 361.16108515 91.06228638 355.15325928 C89.53137934 350.9811255 88.23026671 346.75070012 86.9375 342.5 C86.32151214 340.59539767 85.70068883 338.69235354 85.07543945 336.79077148 C83.7322836 332.69399777 82.40992252 328.59127632 81.09960938 324.48388672 C77.87266827 314.43781748 74.36523755 304.4877282 70.89230347 294.52471924 C68.86047546 288.68589637 66.8472063 282.84068027 64.83203125 276.99609375 C57.61398109 256.08056517 50.3740914 235.17259201 43.13128662 214.265625 C41.96843803 210.90889175 40.8057541 207.55210149 39.64306641 204.1953125 C37.69633615 198.57531859 35.74876647 192.95561616 33.80059814 187.33612061 C33.07068852 185.23044119 32.34098562 183.1246901 31.61151123 181.01885986 C27.79209341 169.99394582 23.95641642 158.97662167 20 148 C16.45565573 149.34455698 13.19200807 150.91228344 9.88671875 152.765625 C8.89873291 153.31855225 7.91074707 153.87147949 6.89282227 154.44116211 C5.83506592 155.03807861 4.77730957 155.63499512 3.6875 156.25 C2.57882568 156.87334229 1.47015137 157.49668457 0.32788086 158.13891602 C-9.13940877 163.47873305 -18.53299965 168.94123025 -27.91015625 174.4375 C-34.21570419 178.1321331 -40.54294436 181.78852681 -46.875 185.4375 C-47.95515381 186.06003662 -49.03530762 186.68257324 -50.14819336 187.32397461 C-52.33796334 188.58576826 -54.52782355 189.84740534 -56.71777344 191.10888672 C-61.065151 193.61370572 -65.41106389 196.1210589 -69.75683594 198.62866211 C-71.91362879 199.87315302 -74.07052931 201.11745734 -76.22753906 202.36157227 C-82.9080445 206.21481759 -89.58684604 210.07097383 -96.26123047 213.93481445 C-98.47784503 215.21333353 -100.69815372 216.48547238 -102.92236328 217.75073242 C-107.62858088 220.43191369 -112.27015698 223.12862934 -116.765625 226.15234375 C-126.05676788 232.28184283 -126.05676788 232.28184283 -131.0703125 231.5546875 C-134.36977777 230.01493704 -137.05837696 228.14825427 -140 226 C-142.16240467 224.63547978 -144.34632532 223.30978561 -146.53125 221.98168945 C-149.71733553 220.03350754 -152.85764155 218.01780885 -156 216 C-154.34587599 211.46875604 -152.10298274 207.38135943 -149.75 203.1875 C-149.09680786 202.01767578 -149.09680786 202.01767578 -148.43041992 200.82421875 C-143.62754585 192.26646158 -138.66206012 183.80382282 -133.703125 175.3359375 C-129.96365411 168.94718008 -126.25874966 162.53883924 -122.5625 156.125 C-121.94028564 155.04541016 -121.31807129 153.96582031 -120.67700195 152.85351562 C-119.41488483 150.6631748 -118.15292215 148.47274498 -116.89111328 146.28222656 C-113.76319852 140.85340058 -110.63141552 135.42680719 -107.5 130 C-106.24998121 127.83334417 -104.99998122 125.6666775 -103.75 123.5 C-91.25 101.83333333 -78.75 80.16666667 -66.25 58.5 C-65.63060547 57.4262915 -65.01121094 56.35258301 -64.37304688 55.24633789 C-63.129877 53.09169376 -61.88639025 50.93723243 -60.64257812 48.78295898 C-57.75016853 43.77245879 -54.86064773 38.76037365 -51.98303223 33.74136353 C-50.97451686 31.98271251 -49.9649523 30.22466791 -48.95507812 28.46679688 C-47.69649482 26.27527769 -46.43983013 24.08265496 -45.18554688 21.88867188 C-31.44820476 -2.0096987 -31.44820476 -2.0096987 -22.75 -4.375 C-14.62750687 -5.79472989 -6.80413052 -4.81438162 0 0 Z " fill="#BA5C25" transform="translate(159,128)"/>
<path d="M0 0 C0.66 0 1.32 0 2 0 C2.22835541 0.66445129 2.45671082 1.32890259 2.69198608 2.01348877 C4.89462686 8.42158036 7.09893478 14.82909653 9.30490685 21.23604202 C10.4376834 24.52621009 11.56991584 27.81656282 12.70068359 31.10742188 C17.93274665 46.3328031 23.22270771 61.53405703 28.66610718 76.68536377 C31.03331896 83.27439755 33.36086448 89.87480575 35.625 96.5 C35.87182526 97.21403992 36.11865051 97.92807983 36.37295532 98.66375732 C37.48980219 102.0045248 38 104.42553303 38 108 C37.33170166 108.3717334 36.66340332 108.7434668 35.97485352 109.12646484 C19.19311466 118.4658349 19.19311466 118.4658349 2.5859375 128.11010742 C-3.72671477 131.85224409 -10.07903766 135.52381678 -16.4375 139.1875 C-17.54472412 139.82550537 -18.65194824 140.46351074 -19.79272461 141.12084961 C-22.06337068 142.42889477 -24.33412358 143.73675448 -26.60498047 145.04443359 C-32.0716998 148.19332054 -37.53574887 151.34683264 -43 154.5 C-45.16665311 155.7500235 -47.33331979 157.00002347 -49.5 158.25 C-50.5725 158.86875 -51.645 159.4875 -52.75 160.125 C-56 162 -59.25 163.875 -62.5 165.75 C-63.57443359 166.37003906 -64.64886719 166.99007812 -65.75585938 167.62890625 C-67.90238708 168.86693969 -70.04951376 170.10393522 -72.19726562 171.33984375 C-77.30660037 174.28167617 -82.40883678 177.23429593 -87.49072266 180.2232666 C-89.9082858 181.64434143 -92.32923701 183.05958575 -94.75048828 184.47436523 C-96.4711258 185.48307277 -98.18678463 186.50025748 -99.90234375 187.51757812 C-100.93488281 188.12021484 -101.96742187 188.72285156 -103.03125 189.34375 C-103.94455078 189.88193359 -104.85785156 190.42011719 -105.79882812 190.97460938 C-106.8884082 191.48217773 -106.8884082 191.48217773 -108 192 C-108.66 191.67 -109.32 191.34 -110 191 C-102.89311086 178.33694564 -95.70724519 165.72529349 -88.37231445 153.19287109 C-82.16403197 142.58353211 -76.02671226 131.93371497 -69.89111328 121.28222656 C-66.76319852 115.85340058 -63.63141552 110.42680719 -60.5 105 C-59.24998121 102.83334417 -57.99998122 100.6666775 -56.75 98.5 C-34.25 59.5 -34.25 59.5 -32.37329102 56.24707031 C-31.12895002 54.09019097 -29.88464636 51.93329008 -28.64038086 49.77636719 C-25.76363263 44.78965174 -22.88655262 39.80312898 -20.0080719 34.81741333 C-9.96798192 17.42939927 -9.96798192 17.42939927 0 0 Z " fill="#8B451C" transform="translate(141,167)"/>
<path d="M0 0 C1.04004769 2.5342007 1.89978397 4.95185202 2.6875 7.5625 C3.02491211 8.62887695 3.02491211 8.62887695 3.36914062 9.71679688 C3.92358017 11.47448819 4.46320189 13.23684098 5 15 C-9.26856081 23.44587513 -23.6311611 31.72622015 -38 40 C-51.65673058 47.86521688 -65.30232703 55.74786832 -78.90869141 63.69995117 C-90.57789343 70.51491269 -102.28869565 77.25773253 -114 84 C-115.88153009 81.17770487 -117.00034705 78.72109829 -118.1875 75.5625 C-118.55230469 74.61503906 -118.91710937 73.66757812 -119.29296875 72.69140625 C-120.04913988 69.81294267 -120.03510368 68.73116491 -119 66 C-116.49744183 64.36430103 -114.08526419 62.98631328 -111.4375 61.625 C-109.77850054 60.73838004 -108.1210242 59.84890595 -106.46484375 58.95703125 C-105.57651855 58.48088379 -104.68819336 58.00473633 -103.77294922 57.51416016 C-98.9553098 54.88350338 -94.23170575 52.09386805 -89.5 49.3125 C-87.44556392 48.10894574 -85.39087177 46.90582847 -83.3359375 45.703125 C-82.2953418 45.09404297 -81.25474609 44.48496094 -80.18261719 43.85742188 C-74.84108851 40.74002772 -69.48346348 37.65066711 -64.125 34.5625 C-63.04831055 33.94173584 -61.97162109 33.32097168 -60.86230469 32.68139648 C-55.3602809 29.51014805 -49.85642993 26.34209046 -44.3515625 23.17578125 C-43.2577124 22.54599365 -42.1638623 21.91620605 -41.03686523 21.26733398 C-38.86515025 20.01702106 -36.69279813 18.76781407 -34.51977539 17.51977539 C-29.17492506 14.4420661 -23.85859513 11.32637343 -18.58203125 8.1328125 C-17.05980957 7.21556396 -17.05980957 7.21556396 -15.50683594 6.27978516 C-13.58670279 5.11910765 -11.67169821 3.94989028 -9.76269531 2.77099609 C-8.91416992 2.25875488 -8.06564453 1.74651367 -7.19140625 1.21875 C-6.45092041 0.76435547 -5.71043457 0.30996094 -4.94750977 -0.15820312 C-3 -1 -3 -1 0 0 Z " fill="#FBFBFC" transform="translate(430,307)"/>
<path d="M0 0 C3.00375365 1.50187682 3.13261211 3.62722719 4.1875 6.75 C4.73470703 8.32007813 4.73470703 8.32007813 5.29296875 9.921875 C6.05149796 13.22420106 6.04282272 14.80851099 5 18 C3.15600586 19.53881836 3.15600586 19.53881836 0.71484375 20.83984375 C-0.19563721 21.33790527 -1.10611816 21.8359668 -2.04418945 22.34912109 C-3.04023193 22.87328613 -4.03627441 23.39745117 -5.0625 23.9375 C-7.18326906 25.09326041 -9.30303102 26.25087038 -11.421875 27.41015625 C-12.51564453 28.00328613 -13.60941406 28.59641602 -14.73632812 29.20751953 C-19.8192276 31.99915986 -24.81480752 34.93434926 -29.8125 37.875 C-31.82125313 39.05139867 -33.83037225 40.22717259 -35.83984375 41.40234375 C-36.84901855 41.99257324 -37.85819336 42.58280273 -38.89794922 43.19091797 C-44.21340527 46.2908337 -49.54384157 49.36469062 -54.875 52.4375 C-55.9484668 53.05633057 -57.02193359 53.67516113 -58.12792969 54.31274414 C-62.55267838 56.86276187 -66.9781147 59.41158405 -71.40380859 61.95996094 C-74.79038672 63.9102045 -78.17649584 65.86126012 -81.5625 67.8125 C-82.64063965 68.43318359 -83.7187793 69.05386719 -84.82958984 69.69335938 C-89.68211147 72.4909676 -94.52553671 75.30110853 -99.33984375 78.1640625 C-100.13640381 78.63739014 -100.93296387 79.11071777 -101.75366211 79.59838867 C-103.2061394 80.4642552 -104.65634118 81.33395536 -106.10375977 82.20825195 C-110.78197057 85 -110.78197057 85 -113 85 C-113.84161854 82.91999989 -114.67300763 80.83585854 -115.5 78.75 C-115.9640625 77.58984375 -116.428125 76.4296875 -116.90625 75.234375 C-118 72 -118 72 -118 68 C-116.9790625 67.44054687 -115.958125 66.88109375 -114.90625 66.3046875 C-105.00197797 60.85246465 -95.20288134 55.23743204 -85.44677734 49.5246582 C-78.02161201 45.17689815 -70.58002227 40.85886151 -63.125 36.5625 C-61.50779053 35.63026611 -61.50779053 35.63026611 -59.85791016 34.67919922 C-55.47536799 32.1535448 -51.09216077 29.62904571 -46.70898438 27.10449219 C-44.51853915 25.842676 -42.32827202 24.58055059 -40.13818359 23.31811523 C-37.9802225 22.07445413 -35.82170267 20.83176198 -33.66259766 19.59008789 C-28.12105566 16.39844028 -22.59872816 13.17761687 -17.1015625 9.91015625 C-15.43891357 8.92607788 -15.43891357 8.92607788 -13.74267578 7.92211914 C-11.61981695 6.66377946 -9.50082783 5.39888286 -7.38623047 4.12670898 C-6.44408691 3.56927002 -5.50194336 3.01183105 -4.53125 2.4375 C-3.70173828 1.94121094 -2.87222656 1.44492188 -2.01757812 0.93359375 C-1.35177734 0.62550781 -0.68597656 0.31742188 0 0 Z " fill="#FBFBFC" transform="translate(410,254)"/>
<path d="M0 0 C1.203125 2.58203125 1.203125 2.58203125 2.25 5.8125 C2.60578125 6.87082031 2.9615625 7.92914063 3.328125 9.01953125 C4.35165111 13.55994069 4.35165111 13.55994069 3 16 C0.70757446 17.61981616 -1.48871682 18.96778923 -3.9375 20.3125 C-5.50000447 21.20051297 -7.06250416 22.08853434 -8.625 22.9765625 C-9.48480469 23.45899414 -10.34460938 23.94142578 -11.23046875 24.43847656 C-15.22957395 26.69326119 -19.19958768 28.99750524 -23.17260742 31.29785156 C-26.50453923 33.22630084 -29.83964975 35.14913857 -33.17578125 37.0703125 C-34.3045166 37.72032227 -35.43325195 38.37033203 -36.59619141 39.04003906 C-38.28107666 40.01021973 -38.28107666 40.01021973 -40 41 C-55.6684201 50.02379391 -71.315938 59.08148412 -86.92675781 68.20458984 C-92.44946075 71.43099256 -97.97492772 74.65265698 -103.5 77.875 C-105.53126128 79.05987649 -107.56251238 80.24477044 -109.59375 81.4296875 C-111.0625 82.28645833 -112.53125 83.14322917 -114 84 C-116.33503843 81.66496157 -117.03223079 79.76960812 -118.1875 76.6875 C-118.55230469 75.74261719 -118.91710937 74.79773438 -119.29296875 73.82421875 C-120.09783448 70.60920262 -120.07686826 69.12225766 -119 66 C-116.72875977 64.20166016 -116.72875977 64.20166016 -113.69140625 62.5390625 C-112.56524902 61.91056396 -111.4390918 61.28206543 -110.27880859 60.63452148 C-109.04009481 59.9645779 -107.80132375 59.29474022 -106.5625 58.625 C-105.28624938 57.91859268 -104.01103355 57.21031287 -102.73681641 56.50024414 C-100.11111351 55.03842671 -97.48154338 53.5839564 -94.84912109 52.13427734 C-89.14452732 48.98300744 -83.51139693 45.70869665 -77.875 42.4375 C-75.72940335 41.19750704 -73.5835696 39.95792425 -71.4375 38.71875 C-69.84808594 37.80029297 -69.84808594 37.80029297 -68.2265625 36.86328125 C-64.96475993 34.9796495 -61.70138156 33.09877679 -58.4375 31.21875 C-45.77253964 23.92238622 -33.12785612 16.5925474 -20.5078125 9.21875 C-19.61739258 8.70183594 -18.72697266 8.18492187 -17.80957031 7.65234375 C-15.77606189 6.45641179 -13.75617817 5.23721217 -11.74511719 4.00390625 C-10.67165039 3.35292969 -9.59818359 2.70195312 -8.4921875 2.03125 C-7.51362793 1.42861328 -6.53506836 0.82597656 -5.52685547 0.20507812 C-3 -1 -3 -1 0 0 Z " fill="#FCFBFC" transform="translate(394,204)"/>
<path d="M0 0 C2.68157898 1.76712347 3.03407923 3.9764393 3.9453125 6.9921875 C4.44804687 8.59707031 4.44804687 8.59707031 4.9609375 10.234375 C5.6953125 13.1171875 5.6953125 13.1171875 5.6953125 16.1171875 C3.05453016 17.64071577 0.41374519 19.1642395 -2.22705078 20.68774414 C-4.56140392 22.03451173 -6.89571985 23.38134357 -9.22998047 24.72827148 C-15.14447239 28.14096048 -21.05957191 31.55258156 -26.9765625 34.9609375 C-38.4189646 41.55382554 -49.84574037 48.17197847 -61.24633789 54.83691406 C-69.8672488 59.87282837 -78.51614739 64.85954156 -87.17602539 69.828125 C-91.87587421 72.53117474 -96.55956574 75.24727634 -101.171875 78.09765625 C-101.87368896 78.53037842 -102.57550293 78.96310059 -103.29858398 79.40893555 C-104.54879363 80.18613534 -105.79362225 80.97209509 -107.03149414 81.76879883 C-108.64453125 82.7734375 -108.64453125 82.7734375 -111.3046875 84.1171875 C-112.2946875 83.7871875 -113.2846875 83.4571875 -114.3046875 83.1171875 C-115.34473519 80.5829868 -116.20447147 78.16533548 -116.9921875 75.5546875 C-117.21712891 74.84376953 -117.44207031 74.13285156 -117.67382812 73.40039062 C-118.22826767 71.64269931 -118.76788939 69.88034652 -119.3046875 68.1171875 C-104.47654115 59.30185224 -89.57267604 50.62511162 -74.61914062 42.02441406 C-69.17818195 38.89353831 -63.7416005 35.75508173 -58.3046875 32.6171875 C-51.70063111 28.80613719 -45.09583773 24.99638562 -38.48828125 21.19140625 C-37.36760254 20.54558594 -36.24692383 19.89976562 -35.09228516 19.234375 C-32.88576129 17.96339667 -30.67842407 16.69382917 -28.47021484 15.42578125 C-23.62700631 12.63909418 -18.80333022 9.83149755 -14.03515625 6.91796875 C-13.24761963 6.44012939 -12.46008301 5.96229004 -11.64868164 5.4699707 C-10.21804684 4.59780133 -8.79349775 3.71553078 -7.37670898 2.82104492 C-4.89875796 1.31403035 -2.9338407 0.14917834 0 0 Z " fill="#FCFBFC" transform="translate(374.3046875,151.8828125)"/>
<path d="M0 0 C3 6.625 3 6.625 3 10 C2.05253906 10.5261792 2.05253906 10.5261792 1.0859375 11.06298828 C-13.76070433 19.31795646 -28.49507881 27.73480095 -43.14746094 36.33056641 C-47.75593913 39.02765421 -52.37744454 41.70213259 -57 44.375 C-58.22082275 45.08112427 -58.22082275 45.08112427 -59.46630859 45.80151367 C-61.31066727 46.8680306 -63.15529866 47.93407588 -65 49 C-67.18975773 45.71536341 -67.99806563 42.79303725 -69 39 C-66.35849201 37.47605308 -63.71697811 35.95211642 -61.07543945 34.42822266 C-58.74835632 33.0856177 -56.42135663 31.74286926 -54.09448242 30.39990234 C-48.06922902 26.92268423 -42.04243967 23.44819735 -36.01171875 19.98046875 C-33.77854688 18.69548445 -31.54547195 17.41033167 -29.3125 16.125 C-27.69045654 15.19179932 -27.69045654 15.19179932 -26.03564453 14.23974609 C-19.36498046 10.39258921 -12.72819783 6.49671719 -6.18481445 2.43603516 C-2.21145814 0 -2.21145814 0 0 0 Z " fill="#F9F9FA" transform="translate(406,231)"/>
<path d="M0 0 C0.99 0.495 0.99 0.495 2 1 C2.6328125 3.06640625 2.6328125 3.06640625 3.125 5.5625 C3.29257812 6.38878906 3.46015625 7.21507812 3.6328125 8.06640625 C3.75398438 8.70449219 3.87515625 9.34257812 4 10 C2.9790625 10.55945313 1.958125 11.11890625 0.90625 11.6953125 C-8.97873303 17.13691691 -18.75967364 22.73953179 -28.49609375 28.44238281 C-36.4794784 33.11800204 -44.48402973 37.75556862 -52.5 42.375 C-53.08096436 42.7098642 -53.66192871 43.04472839 -54.26049805 43.38973999 C-57.50653751 45.26062796 -60.75304186 47.13070691 -64 49 C-66.18975773 45.71536341 -66.99806563 42.79303725 -68 39 C-67.2879541 38.59386475 -66.5759082 38.18772949 -65.84228516 37.76928711 C-52.58727291 30.20695604 -39.34075378 22.63076805 -26.125 15 C-25.04879395 14.37988037 -23.97258789 13.75976074 -22.86376953 13.12084961 C-18.34357269 10.51531669 -13.82738002 7.90484472 -9.3359375 5.25 C-8.67190918 4.86070312 -8.00788086 4.47140625 -7.32373047 4.0703125 C-5.66043065 3.09415367 -4.00183044 2.10999828 -2.34375 1.125 C-1.5703125 0.75375 -0.796875 0.3825 0 0 Z " fill="#F9F9FA" transform="translate(387,179)"/>
<path d="M0 0 C1.83929911 3.78679229 2.33891728 5.97346933 1 10 C-0.90405273 11.61474609 -0.90405273 11.61474609 -3.43359375 13.0234375 C-4.37984619 13.56202393 -5.32609863 14.10061035 -6.30102539 14.65551758 C-7.33606201 15.22294678 -8.37109863 15.79037598 -9.4375 16.375 C-11.63283057 17.61585344 -13.82814242 18.85674002 -16.0234375 20.09765625 C-17.1690918 20.73719238 -18.31474609 21.37672852 -19.49511719 22.03564453 C-25.21885767 25.23406482 -30.88605649 28.53116981 -36.5625 31.8125 C-37.65240234 32.43817871 -38.74230469 33.06385742 -39.86523438 33.70849609 C-44.56766099 36.41146008 -49.25301953 39.12894017 -53.8671875 41.98046875 C-54.91990845 42.629552 -54.91990845 42.629552 -55.99389648 43.29174805 C-57.24410613 44.06894784 -58.48893475 44.85490759 -59.72680664 45.65161133 C-61.33984375 46.65625 -61.33984375 46.65625 -64 48 C-64.99 47.67 -65.98 47.34 -67 47 C-68.02162224 44.41589668 -68.43946714 41.71642849 -69 39 C-62.66497018 34.63141456 -56.16285296 30.73384121 -49.4375 27 C-40.97706446 22.26085524 -32.56083537 17.45399059 -24.1875 12.5625 C-23.21675537 11.99595703 -22.24601074 11.42941406 -21.24584961 10.84570312 C-20.31264893 10.29978516 -19.37944824 9.75386719 -18.41796875 9.19140625 C-17.51868652 8.66562988 -16.6194043 8.13985352 -15.69287109 7.59814453 C-13.84654148 6.50239896 -12.01134841 5.38773251 -10.18603516 4.25732422 C-8.85064697 3.43192139 -8.85064697 3.43192139 -7.48828125 2.58984375 C-6.69591064 2.09218506 -5.90354004 1.59452637 -5.0871582 1.08178711 C-3 0 -3 0 0 0 Z " fill="#F9F9FB" transform="translate(443,331)"/>
<path d="M0 0 C1.83749967 3.78308755 2.37217975 5.98244402 1 10 C-1.08764648 11.70654297 -1.08764648 11.70654297 -3.87109375 13.2421875 C-4.90782227 13.82605225 -5.94455078 14.40991699 -7.01269531 15.01147461 C-8.14288086 15.62643799 -9.27306641 16.24140137 -10.4375 16.875 C-11.61003475 17.52891677 -12.78157147 18.18462603 -13.95214844 18.84204102 C-16.39579126 20.21266324 -18.84360732 21.57537346 -21.29443359 22.93310547 C-27.15722447 26.19089437 -32.94857981 29.57202115 -38.75 32.9375 C-47.48641645 37.98221647 -56.2320653 43.01024807 -65 48 C-67.83374881 44.79663178 -68.5205537 42.21912747 -69 38 C-68.42894531 37.67950684 -67.85789062 37.35901367 -67.26953125 37.02880859 C-56.04881867 30.72496232 -44.86104861 24.37049576 -33.75 17.875 C-32.76040283 17.29717773 -31.77080566 16.71935547 -30.7512207 16.12402344 C-25.9507159 13.31855928 -21.15669979 10.50267836 -16.37109375 7.671875 C-14.64326188 6.65619434 -12.91539899 5.64056646 -11.1875 4.625 C-10.39891602 4.15433105 -9.61033203 3.68366211 -8.79785156 3.19873047 C-8.07436523 2.77479004 -7.35087891 2.35084961 -6.60546875 1.9140625 C-5.97793701 1.5423291 -5.35040527 1.1705957 -4.70385742 0.78759766 C-3 0 -3 0 0 0 Z " fill="#F9F9FB" transform="translate(424,282)"/>
<path d="M0 0 C1.31356822 3.76741573 2.61317715 7.53933031 3.90014648 11.31591797 C4.33971026 12.59945067 4.78303881 13.88170057 5.23022461 15.16259766 C5.87305724 17.00600426 6.5011722 18.85452238 7.12890625 20.703125 C7.51119385 21.81333008 7.89348145 22.92353516 8.28735352 24.06738281 C8.98507053 26.93856362 9.04212832 28.28642487 8 31 C6.68 31.33 5.36 31.66 4 32 C1.525 24.08 1.525 24.08 -1 16 C-1.33 21.61 -1.66 27.22 -2 33 C-3.485 33.495 -3.485 33.495 -5 34 C-7.97 31.03 -10.94 28.06 -14 25 C-13.525625 26.52625 -13.05125 28.0525 -12.5625 29.625 C-10.27680277 37.3092964 -10.27680277 37.3092964 -10 41 C-10.66 41.66 -11.32 42.32 -12 43 C-12.99 43 -13.98 43 -15 43 C-16.3114418 39.07099795 -17.61116701 35.13833469 -18.90014648 31.2019043 C-19.34029769 29.86328005 -19.78363892 28.52570035 -20.23022461 27.18920898 C-20.87149885 25.26823955 -21.50037787 23.34314622 -22.12890625 21.41796875 C-22.51119385 20.26063232 -22.89348145 19.1032959 -23.28735352 17.91088867 C-24 15 -24 15 -23 12 C-22.01 11.67 -21.02 11.34 -20 11 C-15.71 15.29 -11.42 19.58 -7 24 C-6.89042969 22.43507812 -6.78085937 20.87015625 -6.66796875 19.2578125 C-6.50854865 17.21348413 -6.3483522 15.16921619 -6.1875 13.125 C-6.11724609 12.09246094 -6.04699219 11.05992187 -5.97460938 9.99609375 C-5.89404297 9.00996094 -5.81347656 8.02382812 -5.73046875 7.0078125 C-5.66239014 6.09660645 -5.59431152 5.18540039 -5.52416992 4.24658203 C-4.79147602 1.10627029 -3.24159377 0 0 0 Z " fill="#F4F3F6" transform="translate(271,133)"/>
<path d="M0 0 C0.99 0 1.98 0 3 0 C4.54081195 4.22215532 6.05409938 8.45366823 7.5625 12.6875 C8.21895508 14.48477539 8.21895508 14.48477539 8.88867188 16.31835938 C9.29794922 17.47529297 9.70722656 18.63222656 10.12890625 19.82421875 C10.51119385 20.88729248 10.89348145 21.95036621 11.28735352 23.0456543 C12.03649244 26.15128299 11.88588466 27.96443401 11 31 C5.33285375 30.59520384 2.35120543 28.41312369 -1.875 24.9375 C-2.46796875 24.46505859 -3.0609375 23.99261719 -3.671875 23.50585938 C-5.12280128 22.34745855 -6.56257172 21.17510829 -8 20 C-7.55527344 21.12019531 -7.11054688 22.24039063 -6.65234375 23.39453125 C-6.08023914 24.8669972 -5.50865135 26.33966403 -4.9375 27.8125 C-4.64294922 28.55048828 -4.34839844 29.28847656 -4.04492188 30.04882812 C-1.88671875 35.66015625 -1.88671875 35.66015625 -3 39 C-5.0625 39.6875 -5.0625 39.6875 -7 40 C-8.54081195 35.77784468 -10.05409938 31.54633177 -11.5625 27.3125 C-12.00013672 26.11431641 -12.43777344 24.91613281 -12.88867188 23.68164062 C-13.29794922 22.52470703 -13.70722656 21.36777344 -14.12890625 20.17578125 C-14.51119385 19.11270752 -14.89348145 18.04963379 -15.28735352 16.9543457 C-16.03649244 13.84871701 -15.88588466 12.03556599 -15 9 C-10.24533089 9 -8.39881386 10.61244729 -4.875 13.4375 C-1.11630214 16.4904846 -1.11630214 16.4904846 3 19 C2.61585938 17.96359375 2.23171875 16.9271875 1.8359375 15.859375 C1.34816681 14.48986499 0.86123109 13.12005739 0.375 11.75 C0.11976563 11.06808594 -0.13546875 10.38617188 -0.3984375 9.68359375 C-2.19059227 4.55603983 -2.19059227 4.55603983 -1.1484375 1.515625 C-0.57996094 0.76539062 -0.57996094 0.76539062 0 0 Z " fill="#F6F6F8" transform="translate(312,108)"/>
<path d="M0 0 C0.66 0.33 1.32 0.66 2 1 C2.625 3.5625 2.625 3.5625 3 6 C1.54462432 6.83848804 0.08559627 7.67063934 -1.375 8.5 C-2.18710937 8.9640625 -2.99921875 9.428125 -3.8359375 9.90625 C-6 11 -6 11 -8 11 C-7.01 12.98 -6.02 14.96 -5 17 C-3.906875 16.319375 -2.81375 15.63875 -1.6875 14.9375 C0.17578125 13.77734375 0.17578125 13.77734375 2 13 C2.99 13.33 3.98 13.66 5 14 C5 15.65 5 17.3 5 19 C-1.75 23 -1.75 23 -4 23 C-3.34 25.31 -2.68 27.62 -2 30 C-1.38511719 29.6390625 -0.77023437 29.278125 -0.13671875 28.90625 C0.67152344 28.4421875 1.47976563 27.978125 2.3125 27.5 C3.51326172 26.80390625 3.51326172 26.80390625 4.73828125 26.09375 C7 25 7 25 10 25 C10.33 26.65 10.66 28.3 11 30 C8.89812468 31.31629567 6.79368324 32.62812997 4.6875 33.9375 C3.79514648 34.49727539 3.79514648 34.49727539 2.88476562 35.06835938 C0.27252256 36.68824194 -2.07221173 38.02407058 -5 39 C-6.28948279 35.23062536 -7.570977 31.45863843 -8.84521484 27.68408203 C-9.2795637 26.40111721 -9.71606654 25.11887948 -10.15478516 23.83740234 C-10.78597355 21.99250022 -11.40871559 20.14471523 -12.03125 18.296875 C-12.40830078 17.18666992 -12.78535156 16.07646484 -13.17382812 14.93261719 C-14 12 -14 12 -14 8 C-11.7136988 6.63597957 -9.42178251 5.28365726 -7.125 3.9375 C-6.47402344 3.54755859 -5.82304687 3.15761719 -5.15234375 2.75585938 C-3.46934275 1.77555467 -1.73703801 0.88101568 0 0 Z " fill="#F6F6F8" transform="translate(290,121)"/>
<path d="M0 0 C8.44049223 22.83454594 8.44049223 22.83454594 4.8125 32 C1.84102234 35.2788719 -0.63929433 36.74486769 -5 37.5625 C-8.53982137 36.89878349 -9.5940124 35.6174223 -11.77832031 32.85180664 C-13.92142013 29.603323 -15.13783591 26.10732611 -16.375 22.4375 C-16.64699219 21.69564453 -16.91898437 20.95378906 -17.19921875 20.18945312 C-18.61639587 16.10870979 -19.43292455 13.25662881 -18 9 C-17.01 8.67 -16.02 8.34 -15 8 C-12.56309576 13.36118933 -10.72093686 18.80487277 -8.96484375 24.42578125 C-8.15853623 27.11743333 -8.15853623 27.11743333 -6 29 C-2.69316534 28.71016731 -2.69316534 28.71016731 0 27 C0.39068182 21.59214108 -0.66194131 17.30839831 -2.5625 12.3125 C-5.06654732 5.71567559 -5.06654732 5.71567559 -4.77734375 2.60546875 C-3.64245732 0.26155759 -2.53889708 0 0 0 Z " fill="#F6F5F8" transform="translate(339,94)"/>
</svg>
