<?xml version="1.0" encoding="UTF-8"?>
<svg version="1.1" xmlns="http://www.w3.org/2000/svg" width="512" height="512">
<path d="M0 0 C1.01790619 0.00215515 2.03581238 0.0043103 3.08456421 0.00653076 C17.69363523 0.05620146 32.02575853 0.30709809 46.375 3.3125 C47.34985352 3.51117676 48.32470703 3.70985352 49.32910156 3.91455078 C88.37782454 12.08284366 124.83813271 27.70153311 156.375 52.3125 C157.27089844 52.99699219 158.16679687 53.68148437 159.08984375 54.38671875 C165.85375932 59.65466563 172.17242313 65.40219115 178.375 71.3125 C178.97538086 71.88419922 179.57576172 72.45589844 180.19433594 73.04492188 C188.53034882 81.04095281 196.17384608 89.25373428 203.05566406 98.53564453 C204.41568182 100.36728947 205.79649374 102.18190483 207.1796875 103.99609375 C213.5480373 112.42343333 219.17969786 121.11991515 224.375 130.3125 C224.73803223 130.94285156 225.10106445 131.57320312 225.47509766 132.22265625 C247.08503355 169.97093421 256.85198837 212.73995161 256.6875 255.9375 C256.68534485 256.95540619 256.6831897 257.97331238 256.68096924 259.02206421 C256.63129854 273.63113523 256.38040191 287.96325853 253.375 302.3125 C253.07698486 303.77478027 253.07698486 303.77478027 252.77294922 305.26660156 C244.60465634 344.31532454 228.98596689 380.77563271 204.375 412.3125 C203.69050781 413.20839844 203.00601562 414.10429687 202.30078125 415.02734375 C197.03283437 421.79125932 191.28530885 428.10992313 185.375 434.3125 C184.51745117 435.21307129 184.51745117 435.21307129 183.64257812 436.13183594 C175.6343274 444.48058817 167.41011118 452.12586051 158.11230469 459.01513672 C156.39124144 460.30037142 154.698612 461.6167016 153.0078125 462.94140625 C122.05599233 486.84699932 84.66878791 502.15926624 46.375 509.3125 C45.56998047 509.47476074 44.76496094 509.63702148 43.93554688 509.80419922 C13.88950647 515.6788185 -20.75595352 514.58629779 -50.625 508.3125 C-52.14794678 507.99901611 -52.14794678 507.99901611 -53.70166016 507.67919922 C-90.93790584 499.76731191 -125.56559467 483.59756002 -155.625 460.3125 C-156.97271484 459.28382813 -156.97271484 459.28382813 -158.34765625 458.234375 C-165.10647392 452.96442525 -171.42437048 447.22095326 -177.625 441.3125 C-178.22538086 440.74080078 -178.82576172 440.16910156 -179.44433594 439.58007812 C-187.79308817 431.5718274 -195.43836051 423.34761118 -202.32763672 414.04980469 C-203.61287142 412.32874144 -204.9292016 410.636112 -206.25390625 408.9453125 C-230.15949932 377.99349233 -245.47176624 340.60628791 -252.625 302.3125 C-252.78726074 301.50748047 -252.94952148 300.70246094 -253.11669922 299.87304688 C-258.58955505 271.88184616 -258.4709259 238.22377604 -252.625 210.3125 C-252.42632324 209.33764648 -252.22764648 208.36279297 -252.02294922 207.35839844 C-241.7272891 158.1397446 -219.29081567 114.71000304 -184.625 78.3125 C-184.05475098 77.71356934 -183.48450195 77.11463867 -182.89697266 76.49755859 C-174.89943802 68.16006957 -166.68545927 60.51490955 -157.40185547 53.63183594 C-155.57021053 52.27181818 -153.75559517 50.89100626 -151.94140625 49.5078125 C-143.51406667 43.1394627 -134.81758485 37.50780214 -125.625 32.3125 C-124.99464844 31.94946777 -124.36429688 31.58643555 -123.71484375 31.21240234 C-85.96656579 9.60246645 -43.19754839 -0.16448837 0 0 Z " fill="#F34234" transform="translate(255.625,-0.3125)"/>
<path d="M0 0 C0.95659327 -0.00623996 1.91318653 -0.01247993 2.89876747 -0.01890898 C6.09471118 -0.03482618 9.28989087 -0.02223937 12.48583984 -0.00964355 C14.78090865 -0.01506522 17.07597398 -0.02218812 19.37103271 -0.03088379 C25.59824918 -0.04911459 31.82520048 -0.04205041 38.05242157 -0.02936745 C44.57011122 -0.01923864 51.08777821 -0.0286328 57.60546875 -0.03491211 C69.25168454 -0.0426549 80.89777934 -0.03022621 92.54397607 -0.00987476 C103.09692268 0.00799554 113.64969328 0.00489121 124.20263672 -0.0135498 C136.46650639 -0.03497068 148.73025075 -0.04291608 160.99413872 -0.03110075 C167.48272808 -0.02486542 173.97119626 -0.02403143 180.45977783 -0.0372467 C186.56002112 -0.04880324 192.65993207 -0.04078254 198.76013947 -0.01766968 C200.99865416 -0.01238161 203.23719683 -0.01389799 205.47570038 -0.02272034 C208.53202911 -0.03365512 211.58729371 -0.01993632 214.64355469 0 C215.52887186 -0.00892289 216.41418903 -0.01784577 217.326334 -0.02703905 C223.15192737 0.04664122 226.52551346 1.15811704 231.32177734 4.50793457 C234.79005701 8.15407474 235.61373197 11.04630154 235.82177734 15.94543457 C235.59544289 21.31905259 234.67839123 24.29065045 231.32177734 28.50793457 C225.67576496 32.50913219 221.4625648 33.08459621 214.64355469 33.01586914 C213.68696142 33.0221091 212.73036816 33.02834907 211.74478722 33.03477812 C208.54884351 33.05069532 205.35366382 33.03810851 202.15771484 33.0255127 C199.86264604 33.03093436 197.56758071 33.03805726 195.27252197 33.04675293 C189.0453055 33.06498373 182.81835421 33.05791955 176.59113312 33.04523659 C170.07344347 33.03510778 163.55577648 33.04450195 157.03808594 33.05078125 C145.39187015 33.05852404 133.74577534 33.04609535 122.09957862 33.0257439 C111.546632 33.0078736 100.99386141 33.01097793 90.44091797 33.02941895 C78.1770483 33.05083982 65.91330394 33.05878522 53.64941597 33.04696989 C47.16082661 33.04073456 40.67235842 33.03990057 34.18377686 33.05311584 C28.08353357 33.06467238 21.98362262 33.05665168 15.88341522 33.03353882 C13.64490053 33.02825075 11.40635786 33.02976713 9.16785431 33.03858948 C6.11152558 33.04952426 3.05626098 33.03580547 0 33.01586914 C-0.88531717 33.02479203 -1.77063435 33.03371491 -2.68277931 33.04290819 C-8.50267749 32.96929995 -11.90444886 31.890997 -16.67822266 28.50793457 C-20.64738727 23.52103544 -21.32616628 19.42926818 -21.05712891 13.09387207 C-20.50122785 9.29999063 -19.31284732 7.27766819 -16.67822266 4.50793457 C-10.99985984 0.54203949 -6.83460443 -0.06888424 0 0 Z " fill="#FEFEFE" transform="translate(148.67822265625,239.4920654296875)"/>
</svg>
