<?xml version="1.0" encoding="UTF-8"?>
<svg version="1.1" xmlns="http://www.w3.org/2000/svg" width="512" height="512">
<path d="M0 0 C0.64598145 0.31340332 1.29196289 0.62680664 1.95751953 0.94970703 C11.04188511 5.41806089 19.1327186 10.57876133 27 17 C27.85706543 17.69681885 27.85706543 17.69681885 28.73144531 18.40771484 C59.97949159 43.97506551 79.24805945 79.8599455 83.58984375 120.015625 C86.14210156 148.0659984 81.34071997 175.71331051 69 201 C68.52989502 201.96897217 68.52989502 201.96897217 68.05029297 202.95751953 C62.01083751 215.23600575 54.37114379 225.70428783 45.04296875 235.74609375 C43.62863009 237.30646355 42.27443417 238.92268487 40.97265625 240.578125 C38.31721075 243.83827591 35.22543338 246.33281471 32 249 C34.01391441 256.02210269 36.33768974 262.87333689 38.89453125 269.71484375 C39.27482483 270.74004623 39.65511841 271.76524872 40.04693604 272.82151794 C41.29909533 276.19464608 42.55574275 279.56608256 43.8125 282.9375 C44.69286867 285.30606252 45.57299102 287.6747166 46.45288086 290.04345703 C49.04952922 297.03046525 51.65161337 304.01543828 54.25473022 311.00003815 C55.51857693 314.39162234 56.78170672 317.78347352 58.04492188 321.17529297 C62.89180414 334.18867785 67.74212402 347.20077745 72.59765625 360.2109375 C73.20108856 361.8278373 73.20108856 361.8278373 73.81671143 363.47740173 C74.38129059 364.98978172 74.38129059 364.98978172 74.95727539 366.53271484 C75.306138 367.47121277 75.65500061 368.40971069 76.01443481 369.37664795 C76.64588186 371.05741746 77.28850838 372.73405474 77.94528198 374.40509033 C80.52688909 381.00659776 80.52688909 381.00659776 79 385 C77 387 77 387 73.95019531 387.3671875 C68.96439113 386.90373574 65.28294844 385.25368626 60.796875 383.125 C59.91960754 382.72224854 59.04234009 382.31949707 58.13848877 381.90454102 C55.33642248 380.61537578 52.54305823 379.30855117 49.75 378 C46.10127403 376.30747196 42.44927192 374.62208893 38.796875 372.9375 C37.9037561 372.5240332 37.01063721 372.11056641 36.0904541 371.68457031 C27.15314475 367.5663151 18.09656636 363.75072935 9 360 C8.77893585 360.59246521 8.5578717 361.18493042 8.33010864 361.79534912 C6.02920412 367.96058857 3.72521647 374.12466937 1.41943359 380.28808594 C0.55926629 382.5885711 -0.30011396 384.8893507 -1.15869141 387.19042969 C-2.39278771 390.49752245 -3.62970879 393.80354665 -4.8671875 397.109375 C-5.25059296 398.13867126 -5.63399841 399.16796753 -6.02902222 400.22845459 C-6.38924469 401.18914856 -6.74946716 402.14984253 -7.12060547 403.13964844 C-7.43593231 403.98348083 -7.75125916 404.82731323 -8.07614136 405.69671631 C-9.88076035 410.19583478 -9.88076035 410.19583478 -11 412 C-14.375 413.0625 -14.375 413.0625 -18 413 C-22.51169443 408.77225443 -24.18305712 402.96867196 -26.28125 397.30859375 C-26.68788376 396.23479965 -27.09451752 395.16100555 -27.51347351 394.05467224 C-28.85060916 390.51868287 -30.17515491 386.97811048 -31.5 383.4375 C-32.42644851 380.98219132 -33.35395218 378.52728053 -34.2824707 376.07275391 C-35.72341134 372.26345873 -37.16381297 368.45396916 -38.60017395 364.64294434 C-43.30023898 352.1754194 -48.07553962 339.7374636 -52.86621094 327.30447388 C-54.17110705 323.91754876 -55.47443196 320.53002288 -56.77734375 317.14233398 C-57.57416127 315.07142971 -58.37103326 313.00054638 -59.16796875 310.9296875 C-59.52847824 309.99257431 -59.88898773 309.05546112 -60.26042175 308.08995056 C-60.59366959 307.22479324 -60.92691742 306.35963593 -61.27026367 305.46826172 C-61.57346527 304.67885193 -61.87666687 303.88944214 -62.1890564 303.07611084 C-62.84549316 301.39555564 -63.53719543 299.72880324 -64.23950195 298.06689453 C-65 296 -65 296 -65 293 C-65.66 293 -66.32 293 -67 293 C-67.10223877 293.65323242 -67.20447754 294.30646484 -67.30981445 294.97949219 C-68.2083436 298.91178881 -69.60606581 302.56432844 -71.04296875 306.328125 C-71.51749985 307.58434914 -71.51749985 307.58434914 -72.00161743 308.86595154 C-73.05946296 311.6622131 -74.12330134 314.45615069 -75.1875 317.25 C-75.93527376 319.22105927 -76.68291069 321.19217047 -77.43041992 323.16333008 C-83.83442141 340.02642387 -90.31780358 356.85917248 -96.8125 373.6875 C-97.05294918 374.31056534 -97.29339836 374.93363068 -97.54113388 375.57557678 C-99.15742364 379.76320831 -100.77550843 383.9501432 -102.39453125 388.13671875 C-103.00453476 389.71543007 -103.00453476 389.71543007 -103.62686157 391.32603455 C-104.38714596 393.28994544 -105.15033535 395.25273505 -105.91690063 397.21420288 C-106.64587507 399.08916925 -107.36311181 400.96873692 -108.06918335 402.85244751 C-108.57960678 404.18969376 -108.57960678 404.18969376 -109.1003418 405.55395508 C-109.39522995 406.34022781 -109.6901181 407.12650055 -109.99394226 407.93659973 C-111.0796587 410.16337808 -112.05329645 411.4723488 -114 413 C-117.375 413.4375 -117.375 413.4375 -121 412 C-122.1730957 409.96411133 -122.1730957 409.96411133 -123.23828125 407.20703125 C-123.87443359 405.58196655 -123.87443359 405.58196655 -124.5234375 403.92407227 C-125.01664647 402.616433 -125.50874446 401.30837439 -126 400 C-126.60130672 398.42169615 -127.20288577 396.84349603 -127.8046875 395.26538086 C-129.82856252 389.93481825 -131.82146205 384.5928947 -133.8125 379.25 C-134.512164 377.37752726 -135.21203224 375.50513082 -135.91210938 373.6328125 C-137.6104273 369.08941734 -139.30598332 364.54500055 -141 360 C-155.86101348 366.24485245 -170.53516398 372.84989806 -185.17700195 379.58984375 C-185.92057449 379.93173233 -186.66414703 380.27362091 -187.43025208 380.62586975 C-188.83200404 381.27068534 -190.23323269 381.91664028 -191.63383484 382.56394958 C-202.77602533 387.69155274 -202.77602533 387.69155274 -209 387 C-211 385.375 -211 385.375 -212 383 C-211.5341309 377.21757628 -209.2759143 371.99335632 -207.22265625 366.625 C-206.82800171 365.57955017 -206.43334717 364.53410034 -206.0267334 363.45697021 C-205.16390228 361.17256216 -204.29869821 358.88904932 -203.431427 356.60632324 C-202.04597006 352.95645326 -200.66907237 349.30346302 -199.29467773 345.64941406 C-195.01899402 334.28377726 -190.72998737 322.92322575 -186.42578125 311.56835938 C-183.68342709 304.33321199 -180.95282056 297.09372893 -178.23354244 289.8498764 C-176.7523539 285.9057749 -175.26530301 281.964096 -173.76467896 278.02734375 C-172.34347025 274.29889699 -170.93655004 270.5653724 -169.54026794 266.82752228 C-169.02031308 265.44349998 -168.49504455 264.06146112 -167.96421814 262.68157196 C-167.23750917 260.79014531 -166.53140186 258.89084134 -165.82641602 256.99121094 C-165.42342789 255.92545837 -165.02043976 254.85970581 -164.60523987 253.76165771 C-163.76135321 251.05464093 -163.76135321 251.05464093 -164.77964783 248.72808838 C-166.21269676 246.69880924 -167.75660436 245.31292535 -169.6875 243.75 C-173.92134841 240.14704821 -177.48857117 236.30293943 -181 232 C-182.16015625 230.59621094 -182.16015625 230.59621094 -183.34375 229.1640625 C-189.94926139 220.99483422 -195.24026964 212.35510837 -200 203 C-200.35336426 202.3080957 -200.70672852 201.61619141 -201.07080078 200.90332031 C-218.49091983 166.09523749 -221.05205267 124.11313175 -208.78173828 87.19433594 C-202.20482083 68.73295739 -192.68432923 51.9023789 -180 37 C-179.16339844 36.01 -178.32679688 35.02 -177.46484375 34 C-171.84059034 27.58246837 -165.78959173 22.15506039 -159 17 C-157.96359375 16.19820312 -156.9271875 15.39640625 -155.859375 14.5703125 C-111.32727825 -19.08040029 -49.98347927 -24.39354985 0 0 Z " fill="#FEAF00" transform="translate(322,57)"/>
<path d="M0 0 C3.10933594 2.06188134 6.20105481 4.13908092 9.26953125 6.26171875 C43.32771116 29.71224489 83.64892036 39.97305416 124.8125 32.4375 C146.87664473 27.96587171 166.45130503 18.48842181 185 6 C186.56995263 4.95197541 188.14036734 3.90464279 189.71118164 2.85791016 C190.51600479 2.32154938 191.32082794 1.7851886 192.15003967 1.23257446 C192.76052658 0.82582489 193.37101349 0.41907532 194 0 C201.81144196 20.48523651 209.49043334 41.0175275 217.10845947 61.57537842 C219.0342685 66.77207122 220.96105527 71.96840075 222.8890686 77.16427612 C223.97435543 80.08937331 225.05727367 83.01533182 226.13851929 85.94192505 C228.60135435 92.59971944 231.08415609 99.24793691 233.64284801 105.86958408 C234.78777055 108.83275925 235.92439124 111.79909412 237.06112862 114.7654171 C237.60108653 116.16605899 238.14562216 117.56494577 238.69499016 118.9619236 C239.45186771 120.88674284 240.19330018 122.81688184 240.93188477 124.7487793 C241.56913231 126.38450142 241.56913231 126.38450142 242.21925354 128.05326843 C243.05861864 131.22124134 243.04092501 132.91651946 242 136 C240 138 240 138 236.95019531 138.3671875 C231.96439113 137.90373574 228.28294844 136.25368626 223.796875 134.125 C222.48097382 133.5208728 222.48097382 133.5208728 221.13848877 132.90454102 C218.33642248 131.61537578 215.54305823 130.30855117 212.75 129 C209.10127403 127.30747196 205.44927192 125.62208893 201.796875 123.9375 C200.9037561 123.5240332 200.01063721 123.11056641 199.0904541 122.68457031 C190.15314475 118.5663151 181.09656636 114.75072935 172 111 C171.66840378 111.88869781 171.66840378 111.88869781 171.33010864 112.79534912 C169.02920412 118.96058857 166.72521647 125.12466937 164.41943359 131.28808594 C163.55926629 133.5885711 162.69988604 135.8893507 161.84130859 138.19042969 C160.60721229 141.49752245 159.37029121 144.80354665 158.1328125 148.109375 C157.74940704 149.13867126 157.36600159 150.16796753 156.97097778 151.22845459 C156.61075531 152.18914856 156.25053284 153.14984253 155.87939453 154.13964844 C155.56406769 154.98348083 155.24874084 155.82731323 154.92385864 156.69671631 C153.11923965 161.19583478 153.11923965 161.19583478 152 163 C148.625 164.0625 148.625 164.0625 145 164 C140.48830557 159.77225443 138.81694288 153.96867196 136.71875 148.30859375 C136.31211624 147.23479965 135.90548248 146.16100555 135.48652649 145.05467224 C134.14939084 141.51868287 132.82484509 137.97811048 131.5 134.4375 C130.57355149 131.98219132 129.64604782 129.52728053 128.7175293 127.07275391 C127.27658866 123.26345873 125.83618703 119.45396916 124.39982605 115.64294434 C119.69976102 103.1754194 114.92446038 90.7374636 110.13378906 78.30447388 C108.82889295 74.91754876 107.52556804 71.53002288 106.22265625 68.14233398 C105.42583873 66.07142971 104.62896674 64.00054638 103.83203125 61.9296875 C103.29126701 60.52401772 103.29126701 60.52401772 102.73957825 59.08995056 C102.2397065 57.79221458 102.2397065 57.79221458 101.72973633 56.46826172 C101.42653473 55.67885193 101.12333313 54.88944214 100.8109436 54.07611084 C100.15450684 52.39555564 99.46280457 50.72880324 98.76049805 49.06689453 C98 47 98 47 98 44 C97.34 44 96.68 44 96 44 C95.84664185 44.97984863 95.84664185 44.97984863 95.69018555 45.97949219 C94.7916564 49.91178881 93.39393419 53.56432844 91.95703125 57.328125 C91.48250015 58.58434914 91.48250015 58.58434914 90.99838257 59.86595154 C89.94053704 62.6622131 88.87669866 65.45615069 87.8125 68.25 C87.06472624 70.22105927 86.31708931 72.19217047 85.56958008 74.16333008 C79.16557859 91.02642387 72.68219642 107.85917248 66.1875 124.6875 C65.94705082 125.31056534 65.70660164 125.93363068 65.45886612 126.57557678 C63.84257636 130.76320831 62.22449157 134.9501432 60.60546875 139.13671875 C60.19879974 140.18919296 59.79213074 141.24166718 59.37313843 142.32603455 C58.61285404 144.28994544 57.84966465 146.25273505 57.08309937 148.21420288 C56.35412493 150.08916925 55.63688819 151.96873692 54.93081665 153.85244751 C54.42039322 155.18969376 54.42039322 155.18969376 53.8996582 156.55395508 C53.45732597 157.73336418 53.45732597 157.73336418 53.00605774 158.93659973 C51.9203413 161.16337808 50.94670355 162.4723488 49 164 C45.625 164.4375 45.625 164.4375 42 163 C40.8269043 160.96411133 40.8269043 160.96411133 39.76171875 158.20703125 C39.12556641 156.58196655 39.12556641 156.58196655 38.4765625 154.92407227 C37.98335353 153.616433 37.49125554 152.30837439 37 151 C36.39869328 149.42169615 35.79711423 147.84349603 35.1953125 146.26538086 C33.17143748 140.93481825 31.17853795 135.5928947 29.1875 130.25 C28.487836 128.37752726 27.78796776 126.50513082 27.08789062 124.6328125 C25.3895727 120.08941734 23.69401668 115.54500055 22 111 C7.13898652 117.24485245 -7.53516398 123.84989806 -22.17700195 130.58984375 C-23.29236076 131.10267662 -23.29236076 131.10267662 -24.43025208 131.62586975 C-25.83200404 132.27068534 -27.23323269 132.91664028 -28.63383484 133.56394958 C-39.77602533 138.69155274 -39.77602533 138.69155274 -46 138 C-48 136.375 -48 136.375 -49 134 C-48.53412751 128.21753425 -46.27583376 122.99341957 -44.22265625 117.625 C-43.82813766 116.57945953 -43.43361908 115.53391907 -43.02714539 114.45669556 C-42.16454069 112.17216248 -41.29946995 109.88855939 -40.43225098 107.60577393 C-38.31529719 102.03304071 -36.21264373 96.45491675 -34.10947037 90.8769722 C-33.35319816 88.87170199 -32.59626747 86.86668108 -31.83932495 84.86166382 C-27.81044713 74.18348048 -23.82528004 63.4893312 -19.85546875 52.7890625 C-19.55854189 51.98879387 -19.26161503 51.18852524 -18.95569038 50.36400604 C-16.29880229 43.2022298 -13.64435381 36.03955017 -10.99099731 28.87646484 C-9.60316592 25.12991037 -8.21434115 21.38372543 -6.82489967 17.63776779 C-6.06269102 15.58172587 -5.30179019 13.52520313 -4.54093933 11.46865845 C-4.08753677 10.24617401 -3.63413422 9.02368958 -3.16699219 7.76416016 C-2.77066589 6.69396637 -2.3743396 5.62377258 -1.96600342 4.52114868 C-1 2 -1 2 0 0 Z " fill="#FA351D" transform="translate(159,306)"/>
<path d="M0 0 C2.28894967 2.28894967 2.87665815 3.95516829 3.98925781 6.98217773 C4.57441162 8.56138756 4.57441162 8.56138756 5.17138672 10.17250061 C5.59436035 11.33116135 6.01733398 12.48982208 6.453125 13.68359375 C7.14127771 15.54726084 7.82943162 17.41092748 8.51763153 19.27457714 C9.25590218 21.27708016 9.99144314 23.28056664 10.72619629 25.28436279 C12.25572362 29.4554167 13.79259223 33.62373866 15.33105469 37.79150391 C15.85578815 39.21325159 16.38050729 40.63500455 16.9052124 42.0567627 C17.16745354 42.76733322 17.42969467 43.47790375 17.69988251 44.21000671 C18.5064036 46.39626467 19.31217393 48.58279799 20.11773682 50.76940918 C25.54899397 65.50934057 31.03513339 80.22864977 36.52958679 94.94511795 C37.71330333 98.11612214 38.89615876 101.28744732 40.07910156 104.45874023 C41.72072335 108.85916346 43.36244481 113.25954932 45.00488281 117.65966797 C45.34483276 118.5743988 45.68478271 119.48912964 46.03503418 120.43157959 C46.65739402 122.08809601 47.29110692 123.7404126 47.93859863 125.38726807 C50.52702466 132.00624319 50.52702466 132.00624319 49 136 C47 138 47 138 43.95019531 138.3671875 C38.96439113 137.90373574 35.28294844 136.25368626 30.796875 134.125 C29.91960754 133.72224854 29.04234009 133.31949707 28.13848877 132.90454102 C25.33642248 131.61537578 22.54305823 130.30855117 19.75 129 C16.10127403 127.30747196 12.44927192 125.62208893 8.796875 123.9375 C7.9037561 123.5240332 7.01063721 123.11056641 6.0904541 122.68457031 C-2.84685525 118.5663151 -11.90343364 114.75072935 -21 111 C-21.33159622 111.88869781 -21.33159622 111.88869781 -21.66989136 112.79534912 C-23.97079588 118.96058857 -26.27478353 125.12466937 -28.58056641 131.28808594 C-29.44073371 133.5885711 -30.30011396 135.8893507 -31.15869141 138.19042969 C-32.39278771 141.49752245 -33.62970879 144.80354665 -34.8671875 148.109375 C-35.25059296 149.13867126 -35.63399841 150.16796753 -36.02902222 151.22845459 C-36.38924469 152.18914856 -36.74946716 153.14984253 -37.12060547 154.13964844 C-37.43593231 154.98348083 -37.75125916 155.82731323 -38.07614136 156.69671631 C-39.88076035 161.19583478 -39.88076035 161.19583478 -41 163 C-44.375 164.0625 -44.375 164.0625 -48 164 C-52.51169594 159.77225302 -54.18305377 153.96867248 -56.28125 148.30859375 C-56.68783844 147.23493561 -57.09442688 146.16127747 -57.51333618 145.05508423 C-58.85053611 141.5189642 -60.17513279 137.97825697 -61.5 134.4375 C-62.42718747 131.97999656 -63.35542361 129.52288853 -64.28466797 127.06616211 C-65.72635674 123.25452097 -67.16753566 119.44269637 -68.60470581 115.62934875 C-73.71198004 102.08154517 -78.91569376 88.57138504 -84.125 75.0625 C-85.38698714 71.78737537 -86.64860037 68.51210738 -87.90975952 65.23666382 C-88.65513293 63.300896 -89.40088874 61.36527535 -90.14712524 59.42984009 C-90.80017874 57.73448297 -91.45086327 56.0382106 -92.09869385 54.34085083 C-92.69281514 52.79781319 -93.2991383 51.25941053 -93.918396 49.72628784 C-95.80345823 44.97800322 -96.20427557 42.01781489 -95 37 C-94.67 36.34 -94.34 35.68 -94 35 C-91.04948105 34.61475089 -88.1514302 34.34273794 -85.1875 34.125 C-52.847099 31.18837944 -25.76509047 19.63054512 0 0 Z " fill="#614D62" transform="translate(352,306)"/>
<path d="M0 0 C4.01968659 0.39408692 4.63550819 1.24802307 7.1875 4.3125 C8.51201422 6.74289529 9.71266353 9.12262992 10.859375 11.6328125 C11.18665588 12.3326828 11.51393677 13.0325531 11.85113525 13.75363159 C12.53753192 15.225928 13.2197319 16.70018743 13.89794922 18.17626953 C14.93918532 20.44116591 15.99383369 22.69943049 17.05078125 24.95703125 C17.71693734 26.39025738 18.38232904 27.82383909 19.046875 29.2578125 C19.36243347 29.93490265 19.67799194 30.6119928 20.00311279 31.30960083 C22.1875 36.07969076 22.1875 36.07969076 22.1875 38.3125 C23.34894531 38.28414062 24.51039063 38.25578125 25.70703125 38.2265625 C29.89292854 38.22840286 33.76701248 38.84845705 37.875 39.6875 C44.0676551 40.93477359 50.24095969 41.92307377 56.515625 42.6875 C59.58206062 43.40479488 61.10264313 43.92980643 63.1875 46.3125 C63.84765625 49.56640625 63.84765625 49.56640625 63.1875 53.3125 C61.32795502 55.98937813 59.03737577 58.0733039 56.625 60.25 C55.33158464 61.47471836 54.03989929 62.70126649 52.75 63.9296875 C51.81994141 64.80318848 51.81994141 64.80318848 50.87109375 65.69433594 C48.24775624 68.21572239 45.90108249 70.93303728 43.58984375 73.73828125 C42.1875 75.3125 42.1875 75.3125 39.1875 77.5625 C36.41150914 81.37948743 36.93992969 83.73415376 37.5234375 88.31640625 C38.53372454 94.59985817 39.63851338 100.87202875 40.81420898 107.12646484 C43.28928472 120.54964445 43.28928472 120.54964445 40.625 124.8125 C37.12433707 126.96675411 35.15310054 126.17454248 31.1875 125.3125 C28.78572002 124.17602091 26.60209768 123.03331889 24.3359375 121.6796875 C23.05996188 120.94910339 21.78391821 120.21863812 20.5078125 119.48828125 C18.52610696 118.33581749 16.54731177 117.17858436 14.5703125 116.01806641 C12.64477329 114.89309105 10.70982693 113.78584977 8.7734375 112.6796875 C8.18686371 112.3276828 7.60028992 111.9756781 6.99594116 111.61300659 C4.43477059 110.15621392 2.62821052 109.29573084 -0.34692383 109.40893555 C-3.34525992 110.50774155 -6.04582085 111.8670885 -8.84765625 113.40234375 C-9.98654297 114.02173828 -11.12542969 114.64113281 -12.29882812 115.27929688 C-13.49100381 115.93598303 -14.68305999 116.59288618 -15.875 117.25 C-17.07062394 117.90361639 -18.26658455 118.55661733 -19.46289062 119.20898438 C-21.66070826 120.4081336 -23.85692831 121.61021882 -26.05102539 122.81616211 C-33.67749379 126.9486548 -33.67749379 126.9486548 -37.8125 126.3125 C-40.12307252 124.03462426 -40.77972765 122.74390328 -41.02734375 119.484375 C-40.26060813 110.02436935 -38.82544057 100.76997322 -37.09741211 91.43847656 C-36.91831299 90.44428711 -36.73921387 89.45009766 -36.5546875 88.42578125 C-36.3882373 87.53673096 -36.22178711 86.64768066 -36.05029297 85.73168945 C-35.79473105 83.13172739 -35.80457838 81.71945485 -36.8125 79.3125 C-38.80150308 76.92534086 -38.80150308 76.92534086 -41.328125 74.5390625 C-42.24980469 73.6315625 -43.17148438 72.7240625 -44.12109375 71.7890625 C-45.1011373 70.83810327 -46.08160954 69.88758564 -47.0625 68.9375 C-62.47095577 53.90637307 -62.47095577 53.90637307 -63.375 49.6875 C-62.60264208 46.42643321 -61.43848603 45.39626248 -58.8125 43.3125 C-56.16039019 42.6379548 -53.78279087 42.18624033 -51.08984375 41.86328125 C-50.34795303 41.76033249 -49.60606232 41.65738373 -48.84169006 41.55131531 C-46.47961855 41.22666776 -44.11529792 40.92514516 -41.75 40.625 C-39.3820017 40.30931498 -37.01469162 39.98894508 -34.64759827 39.66654968 C-33.1769372 39.46790624 -31.70561985 39.27404918 -30.23362732 39.08552551 C-27.2906855 38.70147244 -24.63725401 38.25408467 -21.8125 37.3125 C-20.52337563 35.08932587 -19.41647061 32.9346006 -18.34375 30.609375 C-17.86137878 29.59716888 -17.86137878 29.59716888 -17.3692627 28.56451416 C-16.34064271 26.40161628 -15.32611208 24.23246612 -14.3125 22.0625 C-13.29627975 19.90815162 -12.27717251 17.75521303 -11.2557373 15.60333252 C-10.62100524 14.26385943 -9.98972203 12.92274487 -9.36242676 11.57977295 C-4.12843238 0.45871471 -4.12843238 0.45871471 0 0 Z " fill="#FFF8E7" transform="translate(258.8125,125.6875)"/>
<path d="M0 0 C3.10634943 2.06520289 6.20169644 4.13952478 9.26953125 6.26171875 C33.86339981 23.19565823 60.01040863 33.1574577 90 34.5625 C90.87011719 34.60568359 91.74023438 34.64886719 92.63671875 34.69335938 C94.75768219 34.79824218 96.87882433 34.89950075 99 35 C97.41869969 42.95591718 94.9019297 50.51758556 92.125 58.125 C91.79757813 59.06174561 91.47015625 59.99849121 91.1328125 60.96362305 C88.67474842 67.52466177 88.67474842 67.52466177 85.7265625 69.6015625 C82.21628445 70.11452577 78.78974009 70.29782337 75.25 70.25 C74.50121582 70.24178223 73.75243164 70.23356445 72.98095703 70.22509766 C42.08265533 69.6235607 10.13879919 59.79081673 -14 40 C-13.36424474 34.97581521 -11.89113714 30.65470895 -10.05859375 25.9765625 C-9.77146011 25.23038666 -9.48432648 24.48421082 -9.18849182 23.71542358 C-8.27680874 21.34985577 -7.35729089 18.9874255 -6.4375 16.625 C-5.81523393 15.01452424 -5.19348364 13.40384908 -4.57226562 11.79296875 C-3.05413629 7.85964658 -1.52897647 3.92911764 0 0 Z " fill="#DD5636" transform="translate(159,306)"/>
<path d="M0 0 C2.87891629 2.87891629 2.89863948 4.98358944 3 9 C1.15625 11.80859375 1.15625 11.80859375 -1.5 14.4375 C-2.43830339 15.39113728 -3.37580045 16.34556857 -4.3125 17.30078125 C-5.199375 18.19152344 -6.08625 19.08226562 -7 20 C-8.17960411 21.36391725 -9.34803613 22.73765889 -10.5 24.125 C-28.22133986 44.35446453 -57.10310662 62.05183217 -84 66 C-85.99707031 65.79736328 -85.99707031 65.79736328 -88 65 C-89.2043457 63.06982422 -89.2043457 63.06982422 -90.17578125 60.5546875 C-90.52833984 59.64203125 -90.88089844 58.729375 -91.24414062 57.7890625 C-91.77297852 56.34660156 -91.77297852 56.34660156 -92.3125 54.875 C-92.68439453 53.9365625 -93.05628906 52.998125 -93.43945312 52.03125 C-95.51122292 46.52196272 -96.54407282 42.7351276 -95 37 C-94.67 36.34 -94.34 35.68 -94 35 C-91.04948105 34.61475089 -88.1514302 34.34273794 -85.1875 34.125 C-52.847099 31.18837944 -25.76509047 19.63054512 0 0 Z " fill="#775B60" transform="translate(352,306)"/>
</svg>
